<svg width="18" height="18" viewBox="0 0 18 18" fill="none" xmlns="http://www.w3.org/2000/svg">
<g clip-path="url(#clip0_101_748)">
<path d="M14.3102 9.1406L13.6288 8.45926L4.08807 18H0V13.911L10.9025 3.00754L16.3542 8.45926C16.5349 8.63998 16.6363 8.88506 16.6363 9.1406C16.6363 9.39614 16.5349 9.64122 16.3542 9.82194L9.54074 16.6363L8.17709 15.2737L14.3102 9.1406ZM12.2661 7.09657L10.9025 5.73388L1.92742 14.7089V16.0726H3.29011L12.2661 7.09657ZM14.9915 0.282162L17.7178 3.00754C17.8985 3.18826 18 3.43334 18 3.68888C18 3.94442 17.8985 4.1895 17.7178 4.37023L16.3542 5.73388L12.2661 1.64485L13.6288 0.282162C13.8095 0.101494 14.0546 0 14.3102 0C14.5657 0 14.8108 0.101494 14.9915 0.282162Z" fill="black"/>
</g>
<defs>
<clipPath id="clip0_101_748">
<rect width="18" height="18" fill="white"/>
</clipPath>
</defs>
</svg>
