<svg width="50" height="50" viewBox="0 0 50 50" fill="none" xmlns="http://www.w3.org/2000/svg">
<path d="M39.625 12C41.4531 12 43 13.5469 43 15.375C43 16.5 42.4375 17.4844 41.5938 18.1172L26.3359 29.5781C25.4922 30.2109 24.4375 30.2109 23.5938 29.5781L8.33594 18.1172C7.49219 17.4844 7 16.5 7 15.375C7 13.5469 8.47656 12 10.375 12H39.625ZM22.2578 31.4062C23.875 32.6016 26.0547 32.6016 27.6719 31.4062L43 19.875V34.5C43 37.0312 40.9609 39 38.5 39H11.5C8.96875 39 7 37.0312 7 34.5V19.875L22.2578 31.4062Z" fill="black"/>
</svg>
