<svg width="186" height="50" viewBox="0 0 186 50" fill="none" xmlns="http://www.w3.org/2000/svg">
<mask id="mask0_101_437" style="mask-type:alpha" maskUnits="userSpaceOnUse" x="0" y="0" width="186" height="50">
<rect width="186" height="50" fill="white"/>
</mask>
<g mask="url(#mask0_101_437)">
<path d="M55.7332 17.2281H60.0797V34.8311H55.7332V17.2281ZM61.813 28.2097C61.813 23.8496 64.5211 21.2362 68.5833 21.2362C72.6455 21.2362 75.3537 23.8496 75.3537 28.2097C75.3537 32.5698 72.7403 35.2102 68.5833 35.2102C64.4263 35.2102 61.813 32.6646 61.813 28.2097ZM71.0477 28.2097C71.0477 25.813 70.1134 24.4047 68.6239 24.4047C67.1345 24.4047 66.2137 25.7588 66.2137 28.2097C66.2137 30.6606 67.1345 32.0011 68.6239 32.0011C70.1134 32.0011 71.0748 30.6606 71.0748 28.2232L71.0477 28.2097ZM77.0869 35.7383H81.2845C81.4756 36.1903 81.8094 36.5672 82.2348 36.8117C82.6602 37.0562 83.1539 37.1548 83.6406 37.0924C85.3061 37.0924 86.1727 36.1987 86.1727 34.8717V32.4344H86.1863C85.8276 33.1933 85.2476 33.8259 84.5225 34.2489C83.7974 34.6718 82.9613 34.8654 82.1241 34.804C78.942 34.804 76.8296 32.3802 76.8296 28.2097C76.8296 24.0391 78.8472 21.4393 82.2459 21.4393C83.1046 21.3934 83.9563 21.6148 84.6839 22.0732C85.4114 22.5315 85.9789 23.2042 86.3082 23.9985H86.1863V21.5476H90.4922V34.7363C90.4922 37.9184 87.6758 39.9089 83.5323 39.9089C79.768 39.8953 77.3577 38.1757 77.114 35.7519L77.0869 35.7383ZM86.1863 28.2097C86.1863 26.0838 85.2114 24.7432 83.6677 24.7432C82.1241 24.7432 81.1762 26.0973 81.1762 28.2097C81.1762 30.322 82.1105 31.5678 83.6677 31.5678C85.2249 31.5678 86.1863 30.4168 86.1863 28.2097ZM92.2119 28.2097C92.2119 23.8496 94.9201 21.2362 98.9823 21.2362C103.045 21.2362 105.753 23.8496 105.753 28.2097C105.753 32.5698 103.126 35.2102 98.9823 35.2102C94.8388 35.2102 92.239 32.6646 92.239 28.2097H92.2119ZM101.447 28.2097C101.447 25.813 100.499 24.4047 99.0229 24.4047C97.547 24.4047 96.6127 25.7588 96.6127 28.2097C96.6127 30.6606 97.5334 32.0011 99.0229 32.0011C100.512 32.0011 101.474 30.6606 101.474 28.2232L101.447 28.2097ZM107.513 18.3385C107.494 17.8957 107.608 17.4574 107.84 17.08C108.072 16.7025 108.412 16.4032 108.816 16.2205C109.22 16.0378 109.669 15.9801 110.106 16.0548C110.543 16.1294 110.947 16.3331 111.267 16.6396C111.587 16.946 111.809 17.3413 111.902 17.7744C111.996 18.2076 111.958 18.6588 111.793 19.0702C111.628 19.4815 111.344 19.8341 110.977 20.0825C110.61 20.331 110.177 20.464 109.734 20.4644C109.45 20.4716 109.169 20.4224 108.905 20.3198C108.64 20.2172 108.399 20.0632 108.195 19.8667C107.991 19.6702 107.828 19.4351 107.716 19.1751C107.603 18.9151 107.544 18.6353 107.54 18.352L107.513 18.3385ZM107.513 21.5341H111.914V34.8853H107.581L107.513 21.5341ZM127.743 28.2097C127.743 32.5563 125.793 35.0748 122.475 35.0748C121.626 35.1272 120.781 34.9177 120.055 34.4746C119.328 34.0314 118.755 33.376 118.413 32.5969H118.332V39.1777H113.985V21.5747H118.305V23.9579H118.386C118.717 23.1634 119.284 22.4901 120.011 22.0297C120.738 21.5693 121.589 21.3442 122.448 21.3851C125.861 21.3581 127.824 23.8631 127.824 28.2232L127.743 28.2097ZM123.315 28.2097C123.315 26.0973 122.327 24.7297 120.796 24.7297C119.266 24.7297 118.305 26.0838 118.291 28.2097C118.278 30.3356 119.266 31.6761 120.796 31.6761C122.327 31.6761 123.396 30.4168 123.396 28.2232L123.315 28.2097ZM135.163 21.2227C138.806 21.2227 141.067 22.9423 141.094 25.7046H137.127C137.127 24.7432 136.328 24.1475 135.136 24.1475C133.944 24.1475 133.376 24.6078 133.376 25.2984C133.376 25.989 133.877 26.2056 134.879 26.4088L137.668 26.9775C140.376 27.5462 141.46 28.6294 141.46 30.647C141.46 33.3552 138.955 35.1967 135.231 35.1967C131.507 35.1967 129.083 33.4093 128.907 30.6876H133.119C133.24 31.6761 134.026 32.2584 135.299 32.2584C136.571 32.2584 137.167 31.8521 137.167 31.1345C137.167 30.4168 136.761 30.295 135.718 30.0783L133.2 29.5502C130.586 28.995 129.219 27.6274 129.219 25.5828C129.3 22.9288 131.575 21.2362 135.244 21.2362L135.163 21.2227ZM156.016 34.8717H151.805V32.3667H151.723C151.488 33.2022 150.974 33.9325 150.268 34.4371C149.561 34.9417 148.704 35.1905 147.837 35.1425C147.183 35.1638 146.531 35.0465 145.925 34.7983C145.319 34.55 144.773 34.1764 144.321 33.702C143.87 33.2276 143.524 32.6632 143.306 32.0456C143.088 31.4281 143.004 30.7715 143.057 30.1189V21.5476H147.404V29.1846C147.404 30.7553 148.23 31.6084 149.584 31.6084C149.902 31.606 150.215 31.5355 150.503 31.4016C150.791 31.2677 151.047 31.0735 151.254 30.8322C151.461 30.5909 151.613 30.3081 151.701 30.0029C151.789 29.6976 151.811 29.377 151.764 29.0627V21.5476H156.097L156.016 34.8717ZM158.115 21.5341H162.339V24.1068H162.434C162.668 23.2827 163.168 22.5592 163.856 22.0495C164.545 21.5399 165.383 21.2729 166.239 21.2904C167.099 21.2156 167.956 21.4642 168.642 21.9876C169.328 22.511 169.794 23.2715 169.949 24.1204H170.139C170.41 23.2669 170.954 22.5268 171.689 22.015C172.424 21.5032 173.307 21.2485 174.201 21.2904C174.796 21.2677 175.388 21.3709 175.94 21.5931C176.492 21.8153 176.99 22.1515 177.403 22.5797C177.816 23.0079 178.134 23.5184 178.336 24.078C178.538 24.6375 178.619 25.2333 178.575 25.8265V34.8853H174.201V26.9368C174.201 25.5828 173.565 24.8245 172.332 24.8245C172.059 24.82 171.788 24.8747 171.538 24.9847C171.288 25.0948 171.064 25.2577 170.883 25.4622C170.702 25.6667 170.567 25.908 170.487 26.1695C170.408 26.4311 170.386 26.7067 170.423 26.9775V34.8853H166.28V26.8962C166.28 25.5422 165.616 24.8245 164.425 24.8245C164.149 24.8223 163.875 24.8792 163.623 24.9914C163.37 25.1036 163.145 25.2684 162.962 25.4749C162.778 25.6814 162.641 25.9247 162.559 26.1885C162.478 26.4523 162.454 26.7306 162.488 27.0046V34.8853H158.142L158.115 21.5341Z" fill="#808080"/>
<path d="M47.1348 18.3789C47.1349 15.6839 46.3211 13.0516 44.7999 10.827C43.2787 8.60232 41.1211 6.88895 38.6096 5.9113C36.0982 4.93365 33.35 4.73731 30.7251 5.34798C28.1002 5.95866 25.7209 7.34788 23.8988 9.33369H7V45H42.6799V28.3313C44.0803 27.0788 45.2008 25.545 45.9685 23.8301C46.7361 22.1152 47.1335 20.2578 47.1348 18.3789ZM40.2696 18.3789C40.2723 19.6703 39.8918 20.9335 39.1763 22.0086C38.4607 23.0837 37.4423 23.9223 36.25 24.4184C35.0577 24.9144 33.7449 25.0456 32.478 24.7953C31.2111 24.545 30.0469 23.9245 29.1327 23.0123C28.2186 22.1 27.5957 20.9371 27.3427 19.6707C27.0898 18.4043 27.2183 17.0913 27.7119 15.8979C28.2054 14.7046 29.042 13.6844 30.1156 12.9667C31.1891 12.2489 32.4515 11.8658 33.743 11.8658C35.4716 11.8658 37.1296 12.5516 38.3532 13.7726C39.5768 14.9937 40.266 16.6503 40.2696 18.3789ZM35.8147 38.1348H13.8652V16.1988H20.5543C20.4251 16.9185 20.3571 17.6478 20.3512 18.3789C20.3548 21.9295 21.7668 25.3337 24.2775 27.8444C26.7882 30.355 30.1923 31.7671 33.743 31.7707C34.4371 31.767 35.1299 31.7082 35.8147 31.5947V38.1348Z" fill="#808080"/>
</g>
</svg>
