<svg width="50" height="50" viewBox="0 0 50 50" fill="none" xmlns="http://www.w3.org/2000/svg">
<path d="M28.875 14.25C30.7031 14.25 32.25 12.7734 32.25 10.875C32.25 9.04688 30.7031 7.5 28.875 7.5C26.9766 7.5 25.5 9.04688 25.5 10.875C25.5 12.7734 26.9766 14.25 28.875 14.25ZM17.625 27.75C18.1172 27.75 18.5391 27.3984 18.6797 26.9062L21.6328 15.7266C21.6328 15.6562 21.6328 15.5859 21.6328 15.5156C21.6328 15.0234 21.2812 14.5312 20.7891 14.4609C20.2969 14.3203 19.8047 14.25 19.3828 14.25C16.7812 14.25 14.4609 15.9375 13.7578 18.4688L12 25.3594C12 25.4297 11.9297 25.5 11.9297 25.6406C11.9297 26.1328 12.2812 26.5547 12.8438 26.6953L17.3438 27.75C17.4141 27.75 17.4844 27.75 17.625 27.75ZM37.875 18.75H36.75C36.1875 18.75 35.6953 19.3125 35.6953 19.875V21H33.3047L30 17.7656C29.0859 16.9922 28.0312 16.5 26.9062 16.5C25.0078 16.5 23.3906 17.8359 22.8984 19.6641L21.0703 27.2578C21 27.3984 21 27.6094 21 27.8203C21 28.3828 21.2109 28.9453 21.6328 29.3672L27.6797 35.4844V41.25C27.6797 42.5156 28.7344 43.5 29.9297 43.5C31.0547 43.5 32.1797 42.5156 32.1797 41.25V35.4844C32.1797 34.2891 31.6875 33.1641 30.8438 32.25L27.5391 29.0156C27.5391 28.9453 27.5391 28.9453 27.6094 28.875L28.9453 23.3203L30.4922 24.8672C31.0547 25.2891 31.6172 25.5 32.25 25.5H35.5547V42.375C35.5547 43.0078 36.0469 43.5 36.6094 43.5H37.6641C38.4375 43.5 39 43.0078 39 42.375V19.875C39 19.3125 38.4375 18.75 37.875 18.75ZM17.6953 40.7578C17.625 40.8984 17.625 41.1094 17.625 41.3203C17.625 42.3047 18.2578 43.2188 19.3125 43.5C19.4531 43.5 19.6641 43.5 19.875 43.5C20.8594 43.5 21.7734 42.8672 21.9844 41.8125L23.7422 34.7109L20.0156 30.9844L17.6953 40.7578Z" fill="black"/>
</svg>
