<svg width="18" height="18" viewBox="0 0 18 18" fill="none" xmlns="http://www.w3.org/2000/svg">
<g clip-path="url(#clip0_101_734)">
<path d="M0.9 1H17.1C17.3387 1 17.5676 1.09482 17.7364 1.2636C17.9052 1.43239 18 1.66131 18 1.9V16.3C18 16.5387 17.9052 16.7676 17.7364 16.9364C17.5676 17.1052 17.3387 17.2 17.1 17.2H0.9C0.661305 17.2 0.432387 17.1052 0.263604 16.9364C0.0948211 16.7676 0 16.5387 0 16.3V1.9C0 1.66131 0.0948211 1.43239 0.263604 1.2636C0.432387 1.09482 0.661305 1 0.9 1ZM16.2 4.8142L9.0648 11.2042L1.8 4.7944V15.4H16.2V4.8142ZM2.2599 2.8L9.0549 8.7958L15.7518 2.8H2.2599Z" fill="black"/>
</g>
<defs>
<clipPath id="clip0_101_734">
<rect width="18" height="18" fill="white"/>
</clipPath>
</defs>
</svg>
