<svg width="186" height="50" viewBox="0 0 186 50" fill="none" xmlns="http://www.w3.org/2000/svg">
<mask id="mask0_101_447" style="mask-type:alpha" maskUnits="userSpaceOnUse" x="0" y="0" width="186" height="50">
<rect width="186" height="50" fill="white"/>
</mask>
<g mask="url(#mask0_101_447)">
<path d="M43.2341 18.9697C43.7395 18.9697 43.908 19.1523 43.908 19.6437V30.7634H49.6223C50.1137 30.7634 50.2962 30.9459 50.2962 31.4373V32.4201C50.2962 32.9115 50.1137 33.094 49.6223 33.094H42.0968C41.6054 33.094 41.4089 32.9115 41.4089 32.4201V19.6437C41.4089 19.1523 41.6054 18.9697 42.0968 18.9697H43.2341Z" fill="#808080"/>
<path d="M55.2804 23.8698C55.2804 20.6265 57.3302 18.675 60.8964 18.675C64.4626 18.675 66.5124 20.6265 66.5124 23.8698V28.1941C66.5124 31.4373 64.4485 33.3889 60.8964 33.3889C57.3443 33.3889 55.2804 31.4373 55.2804 28.1941V23.8698ZM64.1537 23.8698C64.1537 22.0446 63.0165 21.0618 60.9666 21.0618C58.9168 21.0618 57.7936 22.0586 57.7936 23.8698V28.2222C57.7936 30.0614 58.9168 31.0302 60.9666 31.0302C63.0165 31.0302 64.1537 30.0193 64.1537 28.2222V23.8698Z" fill="#808080"/>
<path d="M83.2341 25.358C83.7817 25.358 83.908 25.5405 83.908 26.0319V28.6995C83.9229 29.3278 83.797 29.9515 83.5394 30.5249C83.2819 31.0982 82.8994 31.6067 82.4198 32.0129C81.2288 32.9613 79.7271 33.4319 78.2078 33.3327C74.5714 33.3327 72.5918 31.3811 72.5918 28.1379V23.7855C72.5918 20.5843 74.6416 18.6187 78.2078 18.6187C81.0158 18.6187 82.841 19.7279 83.6132 21.9462C83.6564 22.0296 83.6795 22.1219 83.6808 22.2157C83.6821 22.3096 83.6615 22.4025 83.6206 22.487C83.5797 22.5715 83.5197 22.6453 83.4453 22.7025C83.3709 22.7598 83.2841 22.7989 83.192 22.8167L82.0969 23.1958C81.6195 23.3643 81.4229 23.266 81.2545 22.7746C81.0219 22.1749 80.596 21.6698 80.0443 21.3393C79.4925 21.0087 78.8463 20.8715 78.2078 20.9494C76.1439 20.9494 75.0207 21.9462 75.0207 23.7574V28.2221C75.0207 30.0614 76.1579 31.0301 78.2078 31.0301C80.2576 31.0301 81.5212 30.0894 81.5212 28.7135V27.6746H78.4745C77.9691 27.6746 77.7866 27.478 77.7866 26.9866V26.0319C77.7866 25.5405 77.9691 25.358 78.4745 25.358H83.2341Z" fill="#808080"/>
<path d="M89.7066 23.8698C89.7066 20.6265 91.7564 18.675 95.3226 18.675C98.8887 18.675 100.939 20.6265 100.939 23.8698V28.1941C100.939 31.4373 98.8747 33.3889 95.3226 33.3889C91.7704 33.3889 89.7066 31.4373 89.7066 28.1941V23.8698ZM98.5658 23.8698C98.5658 22.0446 97.4286 21.0618 95.3928 21.0618C93.3569 21.0618 92.2057 22.0586 92.2057 23.8698V28.2222C92.2057 30.0614 93.3429 31.0302 95.3928 31.0302C97.4426 31.0302 98.5658 30.0193 98.5658 28.2222V23.8698Z" fill="#808080"/>
<path d="M107.551 19.3769C107.551 19.068 107.65 18.9697 107.959 18.9697H108.604C108.913 18.9697 108.983 19.068 108.983 19.3769V32.6868C108.983 32.9957 108.983 33.094 108.604 33.094H107.959C107.65 33.094 107.551 32.9957 107.551 32.6868V19.3769Z" fill="#808080"/>
<path d="M121.774 18.9697C122.943 18.9697 124.065 19.4342 124.891 20.261C125.718 21.0878 126.183 22.2091 126.183 23.3783C126.183 24.5475 125.718 25.6689 124.891 26.4956C124.065 27.3224 122.943 27.7869 121.774 27.7869H117.562V32.6868C117.562 32.9957 117.492 33.094 117.197 33.094H116.537C116.242 33.094 116.13 32.9957 116.13 32.6868V19.3769C116.13 19.068 116.242 18.9697 116.537 18.9697H121.774ZM121.648 26.3969C122.05 26.3969 122.448 26.3177 122.819 26.1639C123.19 26.0101 123.528 25.7847 123.812 25.5004C124.096 25.2162 124.322 24.8788 124.475 24.5075C124.629 24.1361 124.708 23.7381 124.708 23.3362C124.708 22.9342 124.629 22.5362 124.475 22.1649C124.322 21.7936 124.096 21.4561 123.812 21.1719C123.528 20.8877 123.19 20.6623 122.819 20.5085C122.448 20.3546 122.05 20.2755 121.648 20.2755H117.436V26.3969H121.648Z" fill="#808080"/>
<path d="M137.148 18.6891C138.232 18.5695 139.325 18.8027 140.266 19.3541C141.207 19.9055 141.945 20.7456 142.371 21.7498C142.483 21.9745 142.371 22.157 142.146 22.2693L141.528 22.5501C141.275 22.6484 141.177 22.6343 141.023 22.3676C140.705 21.6223 140.158 20.9975 139.461 20.5836C138.765 20.1697 137.954 19.9881 137.148 20.065C134.775 20.065 133.483 21.0057 133.483 22.6905C133.47 23.2054 133.642 23.7079 133.97 24.1053C134.298 24.5027 134.758 24.7681 135.266 24.8527C136.021 25.0989 136.804 25.2499 137.597 25.3019C138.556 25.3531 139.503 25.5471 140.405 25.8776C141.097 26.0964 141.692 26.5466 142.091 27.1526C142.49 27.7585 142.668 28.4833 142.595 29.2051C142.595 31.8306 140.686 33.4171 137.176 33.4171C136.025 33.5488 134.863 33.282 133.884 32.6612C132.906 32.0404 132.17 31.1031 131.798 30.0054C131.774 29.9553 131.76 29.9004 131.759 29.8446C131.758 29.7887 131.769 29.7334 131.792 29.6824C131.815 29.6314 131.849 29.5861 131.891 29.5497C131.933 29.5133 131.983 29.4867 132.037 29.4718L132.655 29.2472C132.704 29.2273 132.756 29.2178 132.808 29.2192C132.861 29.2206 132.913 29.2329 132.96 29.2553C133.008 29.2778 133.05 29.3099 133.084 29.3496C133.119 29.3892 133.145 29.4357 133.16 29.4859C133.474 30.279 134.033 30.9516 134.755 31.4059C135.477 31.8603 136.325 32.073 137.176 32.0131C139.829 32.0131 141.135 31.0864 141.135 29.2051C141.16 28.7105 141.008 28.2232 140.708 27.8299C140.407 27.4366 139.976 27.1627 139.492 27.0569C138.766 26.8403 138.017 26.7083 137.26 26.6638L135.744 26.4673C135.269 26.3665 134.8 26.24 134.34 26.0882C133.885 25.9507 133.46 25.7267 133.09 25.4283C132.718 25.091 132.424 24.676 132.23 24.2125C132.036 23.7491 131.946 23.2487 131.967 22.7467C132.065 20.2897 133.904 18.6891 137.148 18.6891Z" fill="#808080"/>
<path d="M150.163 28.2923C150.222 29.2852 150.659 30.2178 151.383 30.8998C152.107 31.5817 153.064 31.9614 154.059 31.9614C155.054 31.9614 156.011 31.5817 156.735 30.8998C157.459 30.2178 157.895 29.2852 157.955 28.2923V19.3769C157.955 19.068 158.053 18.9697 158.362 18.9697H159.008C159.317 18.9697 159.415 19.068 159.415 19.3769V28.2783C159.415 31.4654 157.534 33.3888 154.066 33.3888C150.598 33.3888 148.717 31.4654 148.717 28.2783V19.3769C148.717 19.068 148.815 18.9697 149.11 18.9697H149.77C150.065 18.9697 150.163 19.068 150.163 19.3769V28.2923Z" fill="#808080"/>
<path d="M178.79 18.9698C179.099 18.9698 179.198 19.0681 179.198 19.3769V32.6869C179.198 32.9957 179.099 33.094 178.79 33.094H178.201C177.906 33.094 177.808 32.9957 177.808 32.6869V24.5858C177.807 23.407 177.887 22.2297 178.046 21.0617H177.962C177.523 22.1298 177.012 23.1665 176.432 24.1646L173.413 29.4857C173.376 29.5781 173.312 29.657 173.229 29.7121C173.147 29.7673 173.049 29.796 172.95 29.7946H172.557C172.456 29.7951 172.357 29.7661 172.272 29.7113C172.187 29.6564 172.12 29.5781 172.079 29.4857L169.019 24.1084C168.475 23.1246 168.006 22.1015 167.615 21.0477H167.53C167.674 22.2264 167.749 23.4124 167.755 24.5998V32.6869C167.755 32.9957 167.657 33.094 167.348 33.094H166.8C166.491 33.094 166.393 32.9957 166.393 32.6869V19.3769C166.393 19.0681 166.491 18.9698 166.8 18.9698H167.306C167.421 18.959 167.537 18.9843 167.638 19.0421C167.738 19.0999 167.819 19.1875 167.867 19.2927L172.781 28.0256L177.667 19.3769C177.822 19.0821 177.906 19.04 178.215 19.04L178.79 18.9698Z" fill="#808080"/>
<path d="M18.2569 29.9772V40.1281C18.2569 40.5172 18.1024 40.8904 17.8272 41.1656C17.5521 41.4407 17.1789 41.5953 16.7898 41.5953C16.4006 41.5953 16.0274 41.4407 15.7523 41.1656C15.4771 40.8904 15.3226 40.5172 15.3226 40.1281V29.9912C15.7311 30.2895 16.2209 30.4561 16.7266 30.4686C17.2778 30.4843 17.8179 30.3109 18.2569 29.9772ZM30.7525 27.0428C30.3802 27.0428 30.0231 27.1907 29.7598 27.454C29.4965 27.7173 29.3485 28.0745 29.3485 28.4468V30.2159C29.3485 30.605 29.5031 30.9782 29.7783 31.2533C30.0534 31.5285 30.4266 31.683 30.8157 31.683C31.2048 31.683 31.578 31.5285 31.8532 31.2533C32.1283 30.9782 32.2829 30.605 32.2829 30.2159V28.517C32.2938 28.3157 32.2613 28.1144 32.1874 27.9268C32.1136 27.7392 32.0002 27.5697 31.855 27.4298C31.7098 27.2899 31.5362 27.1829 31.3459 27.1162C31.1557 27.0494 30.9533 27.0244 30.7525 27.0428ZM12.1355 33.8242C11.6303 33.809 11.1412 33.6427 10.7315 33.3468V43.5258C10.7315 43.9168 10.8868 44.2918 11.1633 44.5682C11.4397 44.8447 11.8147 45 12.2057 45C12.5967 45 12.9716 44.8447 13.2481 44.5682C13.5246 44.2918 13.6799 43.9168 13.6799 43.5258V33.417C13.2214 33.7133 12.6805 33.8559 12.1355 33.8242ZM26.1755 23.9961C25.9853 23.9866 25.7952 24.0159 25.6166 24.0822C25.4381 24.1485 25.2749 24.2504 25.137 24.3817C24.9991 24.513 24.8894 24.671 24.8145 24.8461C24.7396 25.0212 24.7011 25.2097 24.7013 25.4001V33.2204C24.7013 33.6114 24.8566 33.9864 25.1331 34.2628C25.4096 34.5393 25.7845 34.6946 26.1755 34.6946C26.5665 34.6946 26.9415 34.5393 27.2179 34.2628C27.4944 33.9864 27.6497 33.6114 27.6497 33.2204V25.4984C27.6609 25.2958 27.628 25.0932 27.5534 24.9045C27.4787 24.7158 27.3641 24.5455 27.2173 24.4054C27.0705 24.2653 26.8951 24.1586 26.7031 24.0928C26.5111 24.027 26.3072 24.0036 26.1053 24.0242L26.1755 23.9961ZM21.5142 27.0007C20.9854 26.9971 20.4706 26.8304 20.04 26.5233V36.7304C20.04 37.1214 20.1953 37.4964 20.4718 37.7729C20.7483 38.0493 21.1232 38.2046 21.5142 38.2046C21.9052 38.2046 22.2802 38.0493 22.5566 37.7729C22.8331 37.4964 22.9884 37.1214 22.9884 36.7304V26.5374C22.543 26.8692 21.9993 27.0422 21.444 27.0288L21.5142 27.0007ZM8.9484 34.821V6.30572C8.94471 5.95814 8.80403 5.62605 8.55693 5.38158C8.30982 5.1371 7.97625 4.99998 7.62864 5H7.31976C6.97216 4.99998 6.63858 5.1371 6.39148 5.38158C6.14438 5.62605 6.0037 5.95814 6 6.30572V34.821C6 35.171 6.13905 35.5067 6.38655 35.7542C6.63405 36.0017 6.96974 36.1408 7.31976 36.1408H7.62864C7.97867 36.1408 8.31435 36.0017 8.56186 35.7542C8.80936 35.5067 8.9484 35.171 8.9484 34.821ZM12.2899 32.7431H11.981C11.631 32.7431 11.2953 32.604 11.0478 32.3565C10.8003 32.109 10.6613 31.7733 10.6613 31.4233V9.70341C10.665 9.35582 10.8057 9.02373 11.0528 8.77926C11.2999 8.53478 11.6334 8.39767 11.981 8.39769H12.2899C12.6375 8.39767 12.9711 8.53478 13.2182 8.77926C13.4653 9.02373 13.606 9.35582 13.6097 9.70341V31.4514C13.6097 31.8014 13.4706 32.1371 13.2231 32.3846C12.9756 32.6321 12.64 32.7712 12.2899 32.7712V32.7431ZM16.9372 29.4015H16.6143C16.268 29.4015 15.9358 29.264 15.691 29.0191C15.4461 28.7742 15.3085 28.4421 15.3085 28.0958V13.073C15.3067 12.9004 15.3391 12.7291 15.4039 12.569C15.4687 12.409 15.5645 12.2634 15.686 12.1406C15.8074 12.0179 15.952 11.9205 16.1113 11.854C16.2706 11.7875 16.4416 11.7532 16.6143 11.7532H16.9372C17.2848 11.7569 17.6168 11.8976 17.8613 12.1447C18.1058 12.3918 18.2429 12.7254 18.2429 13.073V28.0958C18.2429 28.4421 18.1053 28.7742 17.8605 29.0191C17.6156 29.264 17.2835 29.4015 16.9372 29.4015ZM21.2896 25.9617C20.942 25.9618 20.6084 25.8246 20.3613 25.5802C20.1142 25.3357 19.9735 25.0036 19.9698 24.656V16.569C19.9583 16.3887 19.9839 16.208 20.045 16.038C20.1062 15.868 20.2016 15.7124 20.3253 15.5808C20.449 15.4492 20.5984 15.3444 20.7643 15.2728C20.9302 15.2013 21.1089 15.1646 21.2896 15.165H21.5985C21.9485 15.165 22.2842 15.304 22.5317 15.5515C22.7792 15.799 22.9182 16.1347 22.9182 16.4847V24.6279C22.9201 24.8024 22.8873 24.9756 22.8218 25.1373C22.7563 25.2991 22.6594 25.4462 22.5367 25.5702C22.4139 25.6943 22.2678 25.7928 22.1068 25.86C21.9457 25.9272 21.773 25.9618 21.5985 25.9617H21.2896ZM25.9368 22.9431C25.5868 22.9431 25.2511 22.8041 25.0036 22.5566C24.7561 22.3091 24.6171 21.9734 24.6171 21.6234V19.5314C24.6208 19.1838 24.7614 18.8517 25.0085 18.6073C25.2556 18.3628 25.5892 18.2257 25.9368 18.2257H26.2457C26.5933 18.2257 26.9269 18.3628 27.174 18.6073C27.4211 18.8517 27.5618 19.1838 27.5655 19.5314V21.6234C27.5655 21.971 27.4284 22.3046 27.1839 22.5517C26.9394 22.7988 26.6073 22.9394 26.2597 22.9431H25.9368Z" fill="#808080"/>
</g>
</svg>
