<svg width="50" height="50" viewBox="0 0 50 50" fill="none" xmlns="http://www.w3.org/2000/svg">
<path d="M33.375 7.5H17.625C15.0938 7.5 13.125 9.53906 13.125 12V39C13.125 41.5312 15.0938 43.5 17.625 43.5H33.375C35.8359 43.5 37.875 41.5312 37.875 39V12C37.875 9.53906 35.8359 7.5 33.375 7.5ZM25.5 41.25C24.2344 41.25 23.25 40.2656 23.25 39C23.25 37.8047 24.2344 36.75 25.5 36.75C26.6953 36.75 27.75 37.8047 27.75 39C27.75 40.2656 26.6953 41.25 25.5 41.25ZM33.375 12V34.5H17.625V12H33.375Z" fill="black"/>
</svg>
