<svg width="186" height="50" viewBox="0 0 186 50" fill="none" xmlns="http://www.w3.org/2000/svg">
<mask id="mask0_101_452" style="mask-type:alpha" maskUnits="userSpaceOnUse" x="0" y="0" width="186" height="50">
<rect width="186" height="50" fill="white"/>
</mask>
<g mask="url(#mask0_101_452)">
<path d="M40.8845 14.5139H43.3147V31.4276H50.6051V33.8578H40.8845V14.5139ZM58.1749 14.5139C59.6168 14.5139 61.0264 14.9415 62.2253 15.7426C63.4242 16.5437 64.3586 17.6823 64.9104 19.0144C65.4622 20.3465 65.6066 21.8124 65.3253 23.2266C65.044 24.6408 64.3496 25.9398 63.33 26.9594C62.3105 27.979 61.0114 28.6733 59.5972 28.9546C58.183 29.2359 56.7172 29.0916 55.385 28.5398C54.0529 27.988 52.9143 27.0535 52.1132 25.8546C51.3121 24.6557 50.8845 23.2462 50.8845 21.8043C50.8845 20.8469 51.0731 19.8989 51.4395 19.0144C51.8059 18.1299 52.3429 17.3262 53.0199 16.6492C53.6968 15.9722 54.5005 15.4352 55.385 15.0689C56.2695 14.7025 57.2176 14.5139 58.1749 14.5139ZM58.1749 26.6646C59.1362 26.6646 60.0759 26.3795 60.8752 25.8455C61.6744 25.3114 62.2974 24.5524 62.6652 23.6643C63.0331 22.7762 63.1294 21.7989 62.9418 20.8561C62.7543 19.9133 62.2914 19.0473 61.6117 18.3676C60.9319 17.6879 60.0659 17.225 59.1231 17.0374C58.1803 16.8499 57.2031 16.9462 56.315 17.314C55.4269 17.6819 54.6678 18.3048 54.1338 19.1041C53.5997 19.9034 53.3147 20.843 53.3147 21.8043C53.3211 23.0891 53.836 24.3191 54.7468 25.2253C55.6576 26.1316 56.8901 26.6403 58.1749 26.6403V26.6646ZM53.3147 31.4519H63.0352V33.8821H53.3147V31.4519ZM84.4204 33.8821H81.9902V32.1445C80.4231 33.2415 78.5569 33.831 76.644 33.8335C75.0127 33.8444 73.405 33.4446 71.9689 32.671C70.5327 31.8973 69.3144 30.7747 68.4261 29.4065C67.5378 28.0383 67.008 26.4686 66.8857 24.8419C66.7634 23.2153 67.0525 21.584 67.7262 20.0983C68.4 18.6127 69.4368 17.3205 70.7411 16.3409C72.0454 15.3612 73.5753 14.7255 75.1898 14.4924C76.8043 14.2593 78.4516 14.4362 79.9797 15.0069C81.5079 15.5777 82.8679 16.5238 83.9344 17.7581L82.1482 19.3499C81.3371 18.443 80.3119 17.7536 79.166 17.3444C78.0202 16.9352 76.7901 16.8193 75.588 17.0073C74.3859 17.1952 73.25 17.6811 72.2837 18.4205C71.3175 19.1599 70.5517 20.1294 70.0561 21.2406C69.5605 22.3518 69.3509 23.5694 69.4464 24.7823C69.5419 25.9953 69.9394 27.1651 70.6028 28.185C71.2661 29.205 72.1742 30.0427 73.2443 30.6218C74.3143 31.2009 75.5123 31.503 76.729 31.5005C77.7388 31.5026 78.7371 31.2866 79.6556 30.8672C80.5742 30.4477 81.3913 29.8348 82.051 29.0704H75.4896V26.6403H84.4447L84.4204 33.8821ZM93.3633 14.5625C94.8052 14.5625 96.2147 14.9901 97.4136 15.7912C98.6125 16.5923 99.5469 17.7309 100.099 19.063C100.651 20.3952 100.795 21.861 100.514 23.2752C100.232 24.6894 99.538 25.9884 98.5184 27.008C97.4988 28.0276 96.1998 28.7219 94.7856 29.0032C93.3714 29.2845 91.9055 29.1402 90.5734 28.5884C89.2412 28.0366 88.1026 27.1021 87.3015 25.9032C86.5005 24.7043 86.0729 23.2948 86.0729 21.8529C86.0664 20.8894 86.2511 19.9342 86.6161 19.0424C86.9811 18.1507 87.5193 17.3402 88.1995 16.6577C88.8797 15.9753 89.6884 15.4344 90.5789 15.0665C91.4694 14.6985 92.424 14.5107 93.3876 14.5139L93.3633 14.5625ZM93.3633 26.7132C94.3245 26.7132 95.2642 26.4281 96.0635 25.8941C96.8628 25.36 97.4857 24.601 97.8536 23.7129C98.2214 22.8248 98.3177 21.8475 98.1302 20.9047C97.9426 19.9619 97.4797 19.0959 96.8 18.4162C96.1203 17.7365 95.2543 17.2736 94.3115 17.086C93.3687 16.8985 92.3914 16.9948 91.5033 17.3626C90.6152 17.7305 89.8562 18.3534 89.3221 19.1527C88.7881 19.952 88.503 20.8916 88.503 21.8529C88.5222 23.1335 89.0461 24.3547 89.9607 25.2512C90.8754 26.1476 92.1069 26.6468 93.3876 26.6403L93.3633 26.7132ZM88.503 31.5005H98.2235V33.9307H88.503V31.5005ZM103.242 14.5139H105.672V33.8335H103.242V14.5139ZM109.038 14.5139H111.468C111.593 14.5006 111.719 14.5006 111.844 14.5139C112.862 14.4035 113.892 14.5087 114.866 14.8226C115.841 15.1365 116.738 15.6521 117.5 16.3358C118.262 17.0195 118.871 17.8561 119.288 18.7909C119.706 19.7258 119.921 20.7381 119.921 21.7618C119.921 22.7855 119.706 23.7978 119.288 24.7326C118.871 25.6675 118.262 26.504 117.5 27.1878C116.738 27.8715 115.841 28.3871 114.866 28.701C113.892 29.0149 112.862 29.1201 111.844 29.0097H111.468V33.8699H109.038V14.5139ZM111.468 16.944V26.5552H111.844C112.531 26.6466 113.229 26.5903 113.892 26.39C114.555 26.1898 115.167 25.8502 115.688 25.394C116.209 24.9378 116.626 24.3756 116.912 23.745C117.198 23.1144 117.346 22.4299 117.346 21.7375C117.346 21.045 117.198 20.3606 116.912 19.73C116.626 19.0994 116.209 18.5371 115.688 18.081C115.167 17.6248 114.555 17.2852 113.892 17.0849C113.229 16.8847 112.531 16.8283 111.844 16.9197C111.712 16.9335 111.582 16.9621 111.456 17.0048L111.468 16.944ZM128.977 15.9112L127.179 17.3329C126.868 17.0087 126.472 16.7798 126.036 16.6731C125.6 16.5664 125.143 16.5863 124.718 16.7305C124.293 16.8747 123.918 17.1372 123.637 17.4871C123.356 17.837 123.181 18.2598 123.132 18.7059V18.9003C123.132 19.9696 123.874 20.6865 125.32 20.7837C130.885 21.1239 133.436 23.7363 133.436 27.1871V27.4058C133.293 28.7715 132.76 30.0673 131.901 31.1389C131.042 32.2106 129.893 33.013 128.592 33.4507C127.29 33.8885 125.89 33.9431 124.558 33.6081C123.226 33.2732 122.019 32.5627 121.079 31.5613L122.938 30.1275C123.371 30.5913 123.899 30.9554 124.487 31.1945C125.074 31.4337 125.707 31.5423 126.34 31.5127C127.51 31.5744 128.659 31.1816 129.547 30.4163C130.434 29.651 130.992 28.5724 131.103 27.4058V27.2357C131.103 23.9914 127.92 23.3961 125.162 23.1287C122.61 22.8857 120.775 21.294 120.775 18.9975V18.9003C120.865 17.7047 121.411 16.5893 122.299 15.7843C123.188 14.9794 124.352 14.5464 125.55 14.5747C126.186 14.5559 126.818 14.6706 127.406 14.9113C127.994 15.152 128.525 15.5133 128.965 15.972L128.977 15.9112ZM142.95 31.3669C145.976 31.3669 148.369 28.0984 148.369 24.0765V14.356H150.799V24.0765C150.799 29.4228 147.3 33.7363 142.999 33.7363C138.697 33.7363 135.198 29.4228 135.198 24.0765V14.356H137.628V24.0765C137.531 28.1591 139.925 31.4276 142.938 31.4276L142.95 31.3669ZM169.451 33.797H167.021V21.7679L161.419 29.0583L155.818 21.7679V33.8335H153.388V14.5139L161.407 25.0728L169.426 14.5139L169.451 33.797Z" fill="#808080"/>
<path d="M29.2199 11.61C29.2199 9.85689 28.5235 8.17562 27.2839 6.93601C26.0443 5.6964 24.363 5 22.61 5C20.8569 5 19.1756 5.6964 17.936 6.93601C16.6964 8.17562 16 9.85689 16 11.61V31.5978L21.4435 35.4982V45H23.7764V35.4982L29.2199 31.5978V11.61ZM26.887 22.7886L23.7764 25.8991V22.983L26.887 19.8724V22.7886ZM18.3815 19.8724L21.4921 22.983V25.8991L18.3815 22.7886V19.8724ZM26.887 16.5674L22.61 20.8445L18.3329 16.4702V13.5541L22.61 17.8311L26.887 13.5541V16.5674ZM22.61 7.33293C23.5506 7.33709 24.464 7.64949 25.2101 8.22227C25.9563 8.79505 26.4941 9.59664 26.7412 10.5043L22.61 14.6233L18.4787 10.5043C18.7168 9.58761 19.2508 8.77516 19.9977 8.19296C20.7447 7.61076 21.6629 7.29136 22.61 7.28432V7.33293ZM18.3329 30.4192V26.045L21.4435 29.1555V32.6306L18.3329 30.4192ZM23.7764 32.6428V29.1555L26.887 26.045V30.407L23.7764 32.6428Z" fill="#808080"/>
</g>
</svg>
