<svg width="186" height="50" viewBox="0 0 186 50" fill="none" xmlns="http://www.w3.org/2000/svg">
<mask id="mask0_101_442" style="mask-type:alpha" maskUnits="userSpaceOnUse" x="0" y="0" width="186" height="50">
<rect width="186" height="50" fill="white"/>
</mask>
<g mask="url(#mask0_101_442)">
<path d="M30.7084 23.3604C30.211 23.8609 29.8301 24.4649 29.5928 25.1294C29.3555 25.7939 29.2677 26.5025 29.3355 27.2048L29.3119 27.1812C29.3817 28.0079 29.2702 28.8399 28.9853 29.619C28.7004 30.3982 28.2488 31.1058 27.6622 31.6925C27.0755 32.2791 26.3679 32.7306 25.5888 33.0156C24.8096 33.3005 23.9776 33.412 23.1509 33.3422L23.1745 33.3658C22.1857 33.2738 21.1925 33.489 20.3304 33.9821C19.4682 34.4752 18.7792 35.2222 18.3572 36.1212C17.9352 37.0203 17.8007 38.0276 17.9722 39.0058C18.1436 39.9841 18.6126 40.8857 19.3152 41.5876C20.0178 42.2896 20.9197 42.7577 21.8982 42.9283C22.8766 43.0988 23.8838 42.9635 24.7824 42.5406C25.6811 42.1178 26.4274 41.4281 26.9198 40.5655C27.4121 39.703 27.6264 38.7096 27.5334 37.7208L27.5584 37.7444C27.4886 36.9177 27.6001 36.0858 27.885 35.3066C28.17 34.5274 28.6215 33.8198 29.2081 33.2332C29.7948 32.6465 30.5024 32.195 31.2815 31.9101C32.0607 31.6251 32.8927 31.5136 33.7194 31.5834L33.6944 31.5598C34.5022 31.6324 35.3153 31.5 36.0583 31.1747C36.8013 30.8495 37.4501 30.342 37.9447 29.6992C38.4393 29.0564 38.7636 28.2991 38.8876 27.4976C39.0117 26.6961 38.9313 25.8762 38.6541 25.114C38.3769 24.3518 37.9118 23.6719 37.3018 23.1374C36.6919 22.6028 35.9569 22.2308 35.1649 22.0559C34.3729 21.8811 33.5496 21.9089 32.7713 22.137C31.9929 22.365 31.2848 22.7858 30.7124 23.3604H30.7084Z" fill="#808080"/>
<path d="M21.0259 30.2709L21.001 30.2473C21.7036 30.3181 22.4132 30.2318 23.0784 29.9948C23.7437 29.7578 24.3479 29.3759 24.8474 28.8767C25.347 28.3775 25.7293 27.7736 25.9669 27.1085C26.2044 26.4435 26.2912 25.734 26.2209 25.0313L26.2459 25.0549C26.1761 24.2282 26.2875 23.3963 26.5725 22.6171C26.8574 21.8379 27.309 21.1303 27.8956 20.5437C28.4823 19.957 29.1899 19.5055 29.969 19.2206C30.7482 18.9356 31.5802 18.8241 32.4069 18.8939L32.3819 18.8703C33.3709 18.9632 34.3644 18.7487 35.227 18.2562C36.0896 17.7636 36.7793 17.017 37.2019 16.1181C37.6246 15.2192 37.7597 14.2118 37.5887 13.2333C37.4178 12.2548 36.9492 11.3528 36.2468 10.6504C35.5444 9.94807 34.6425 9.47946 33.664 9.30853C32.6855 9.1376 31.6781 9.27267 30.7792 9.69533C29.8803 10.118 29.1336 10.8076 28.6411 11.6702C28.1485 12.5328 27.9341 13.5264 28.027 14.5153L28.0033 14.4904C28.0733 15.3172 27.962 16.1492 27.6772 16.9285C27.3923 17.7078 26.9408 18.4155 26.3541 19.0022C25.7674 19.5888 25.0597 20.0404 24.2804 20.3253C23.5011 20.6101 22.6691 20.7214 21.8423 20.6514L21.866 20.6763C21.1633 20.6055 20.4537 20.6918 19.7885 20.9288C19.1233 21.1658 18.5191 21.5478 18.0195 22.0469C17.52 22.5461 17.1376 23.15 16.9001 23.8151C16.6626 24.4801 16.5758 25.1896 16.646 25.8923L16.6224 25.8687C16.692 26.6953 16.5803 27.5272 16.2953 28.3063C16.0103 29.0853 15.5587 29.7928 14.9722 30.3794C14.3856 30.966 13.6781 31.4176 12.899 31.7026C12.1199 31.9876 11.2881 32.0992 10.4614 32.0297L10.4851 32.0533C9.49609 31.9604 8.50255 32.1749 7.63995 32.6674C6.77736 33.16 6.08769 33.9066 5.66504 34.8055C5.24238 35.7044 5.1073 36.7118 5.27823 37.6903C5.44916 38.6688 5.91778 39.5708 6.62016 40.2732C7.32253 40.9755 8.22448 41.4442 9.20298 41.6151C10.1815 41.786 11.1889 41.6509 12.0878 41.2283C12.9867 40.8056 13.7333 40.116 14.2259 39.2534C14.7184 38.3908 14.9329 37.3972 14.84 36.4083L14.8649 36.4319C14.7952 35.6052 14.9066 34.7732 15.1916 33.9941C15.4765 33.2149 15.9281 32.5073 16.5147 31.9207C17.1013 31.334 17.8089 30.8825 18.5881 30.5975C19.3673 30.3126 20.1992 30.2011 21.0259 30.2709Z" fill="#808080"/>
<path d="M12.2294 27.6367C12.7269 27.1363 13.1078 26.5323 13.3448 25.8678C13.5819 25.2032 13.6694 24.4945 13.601 23.7923L13.6259 23.8159C13.5561 22.989 13.6676 22.1568 13.9527 21.3774C14.2378 20.598 14.6896 19.8903 15.2765 19.3036C15.8635 18.7169 16.5714 18.2654 17.3509 17.9806C18.1304 17.6959 18.9626 17.5847 19.7895 17.6549L19.7646 17.6313C20.7532 17.7239 21.7464 17.5093 22.6086 17.0168C23.4708 16.5243 24.1601 15.7778 24.5825 14.8792C25.0049 13.9806 25.1398 12.9735 24.9689 11.9954C24.798 11.0173 24.3295 10.1157 23.6274 9.41355C22.9253 8.71143 22.0236 8.24296 21.0455 8.07204C20.0674 7.90112 19.0603 8.03606 18.1617 8.45846C17.2631 8.88087 16.5166 9.57016 16.0241 10.4324C15.5316 11.2946 15.317 12.2877 15.4096 13.2763L15.386 13.2527C15.4558 14.0794 15.3443 14.9114 15.0594 15.6905C14.7745 16.4697 14.3229 17.1773 13.7363 17.7639C13.1496 18.3506 12.442 18.8021 11.6629 19.0871C10.8837 19.372 10.0517 19.4835 9.22503 19.4137L9.24865 19.4373C8.44089 19.3649 7.6279 19.4975 6.88504 19.8229C6.14217 20.1483 5.49346 20.6559 4.99902 21.2988C4.50458 21.9417 4.1804 22.6989 4.05653 23.5004C3.93266 24.3019 4.01311 25.1217 4.29041 25.8838C4.56771 26.6459 5.03291 27.3257 5.64288 27.8602C6.25285 28.3947 6.98786 28.7666 7.77981 28.9414C8.57176 29.1162 9.39501 29.0882 10.1733 28.8602C10.9516 28.6321 11.6597 28.2113 12.232 27.6367H12.2294Z" fill="#808080"/>
<path d="M52.8875 14.5455H56.7857V33.5155H52.8875V14.5455Z" fill="#808080"/>
<path d="M58.9934 27.0198C58.9879 25.6565 59.3872 24.3223 60.1406 23.1862C60.894 22.05 61.9677 21.163 63.2256 20.6376C64.4835 20.1121 65.869 19.9718 67.2068 20.2344C68.5445 20.497 69.7742 21.1507 70.7401 22.1127C71.706 23.0748 72.3646 24.3018 72.6326 25.6385C72.9006 26.9751 72.7658 28.3613 72.2454 29.6213C71.725 30.8813 70.8423 31.9585 69.7092 32.7164C68.576 33.4744 67.2435 33.879 65.8802 33.879C64.9753 33.8893 64.0774 33.7192 63.239 33.3785C62.4006 33.0378 61.6385 32.5333 60.9973 31.8947C60.3561 31.2561 59.8486 30.496 59.5045 29.659C59.1605 28.822 58.9867 27.9247 58.9934 27.0198ZM68.8688 27.0198C68.8526 26.4322 68.6634 25.8624 68.3251 25.3817C67.9868 24.9009 67.5143 24.5306 66.9666 24.317C66.419 24.1033 65.8205 24.0559 65.2461 24.1805C64.6716 24.3052 64.1466 24.5964 63.7367 25.0178C63.3269 25.4391 63.0503 25.972 62.9416 26.5497C62.833 27.1274 62.897 27.7243 63.1257 28.2659C63.3544 28.8074 63.7377 29.2694 64.2276 29.5943C64.7175 29.9192 65.2924 30.0924 65.8802 30.0924C66.2828 30.1031 66.6832 30.0304 67.0563 29.8786C67.4293 29.7269 67.7669 29.4995 68.0477 29.2109C68.3285 28.9222 68.5464 28.5784 68.6877 28.2013C68.8291 27.8242 68.8907 27.4219 68.8688 27.0198Z" fill="#808080"/>
<path d="M88.3034 20.5228V32.8605C88.3034 37.226 84.8987 39.0714 81.4428 39.0714C80.226 39.1624 79.0077 38.9167 77.9213 38.361C76.835 37.8053 75.9227 36.9613 75.2844 35.9213L78.6104 33.9985C78.8787 34.5406 79.3061 34.9878 79.8355 35.2803C80.3649 35.5728 80.971 35.6966 81.5727 35.6352C81.9573 35.6885 82.3489 35.6546 82.7187 35.5361C83.0884 35.4176 83.4267 35.2175 83.7086 34.9506C83.9905 34.6836 84.2088 34.3567 84.3474 33.994C84.4859 33.6314 84.5411 33.2422 84.5089 32.8553V31.6674C84.0524 32.226 83.4714 32.6697 82.8124 32.9631C82.1534 33.2564 81.4349 33.3912 80.7144 33.3566C78.9999 33.3026 77.3738 32.5835 76.1802 31.3517C74.9866 30.1198 74.3192 28.4719 74.3192 26.7566C74.3192 25.0413 74.9866 23.3934 76.1802 22.1615C77.3738 20.9297 78.9999 20.2106 80.7144 20.1566C81.4349 20.122 82.1534 20.2568 82.8124 20.5502C83.4714 20.8435 84.0524 21.2873 84.5089 21.8458V20.5201L88.3034 20.5228ZM84.5102 26.7586C84.5364 26.1303 84.374 25.5086 84.0439 24.9735C83.7137 24.4384 83.231 24.0142 82.6578 23.7558C82.0846 23.4973 81.4472 23.4162 80.8276 23.5231C80.2079 23.6299 79.6345 23.9198 79.1809 24.3553C78.7274 24.7908 78.4146 25.3521 78.2828 25.9669C78.151 26.5817 78.2062 27.2219 78.4412 27.8051C78.6763 28.3883 79.0806 28.8877 79.6019 29.2392C80.1233 29.5907 80.7379 29.7781 81.3667 29.7774C81.7763 29.806 82.1873 29.7485 82.5733 29.6085C82.9593 29.4686 83.3117 29.2494 83.6078 28.965C83.904 28.6806 84.1373 28.3374 84.2927 27.9574C84.4481 27.5773 84.5222 27.169 84.5102 26.7586Z" fill="#808080"/>
<path d="M90.511 27.0198C90.5056 25.6565 90.9048 24.3223 91.6583 23.1862C92.4117 22.05 93.4853 21.163 94.7432 20.6376C96.0011 20.1121 97.3867 19.9718 98.7244 20.2344C100.062 20.497 101.292 21.1507 102.258 22.1127C103.224 23.0748 103.882 24.3018 104.15 25.6385C104.418 26.9751 104.283 28.3613 103.763 29.6213C103.243 30.8813 102.36 31.9585 101.227 32.7164C100.094 33.4744 98.7611 33.879 97.3979 33.879C96.4929 33.8893 95.595 33.7192 94.7566 33.3785C93.9182 33.0378 93.1561 32.5333 92.5149 31.8947C91.8737 31.2561 91.3663 30.496 91.0222 29.659C90.6781 28.822 90.5044 27.9247 90.511 27.0198ZM100.386 27.0198C100.37 26.4322 100.181 25.8624 99.8428 25.3817C99.5045 24.9009 99.0319 24.5306 98.4843 24.317C97.9367 24.1033 97.3382 24.0559 96.7637 24.1805C96.1892 24.3052 95.6643 24.5964 95.2544 25.0178C94.8445 25.4391 94.568 25.972 94.4593 26.5497C94.3506 27.1274 94.4146 27.7243 94.6434 28.2659C94.8721 28.8074 95.2554 29.2694 95.7453 29.5943C96.2352 29.9192 96.81 30.0924 97.3979 30.0924C97.8004 30.1031 98.2009 30.0304 98.5739 29.8786C98.947 29.7269 99.2846 29.4995 99.5654 29.2109C99.8461 28.9222 100.064 28.5784 100.205 28.2013C100.347 27.8242 100.408 27.4219 100.386 27.0198Z" fill="#808080"/>
<path d="M106.103 17.0406C106.103 16.578 106.24 16.1258 106.497 15.7412C106.754 15.3566 107.119 15.0568 107.546 14.8798C107.974 14.7027 108.444 14.6564 108.898 14.7467C109.351 14.8369 109.768 15.0597 110.095 15.3868C110.422 15.7139 110.645 16.1306 110.735 16.5843C110.826 17.038 110.779 17.5083 110.602 17.9357C110.425 18.3631 110.126 18.7284 109.741 18.9854C109.356 19.2424 108.904 19.3796 108.441 19.3796C107.823 19.3734 107.232 19.125 106.794 18.6877C106.357 18.2504 106.109 17.6591 106.103 17.0406ZM106.496 20.5228H110.396V33.5168H106.491L106.496 20.5228Z" fill="#808080"/>
<path d="M127.228 27.0198C127.273 27.8785 127.148 28.7377 126.859 29.548C126.571 30.3582 126.126 31.1034 125.549 31.7409C124.971 32.3783 124.274 32.8954 123.496 33.2624C122.718 33.6293 121.876 33.8389 121.017 33.879C120.294 33.9184 119.572 33.7966 118.903 33.5224C118.233 33.2481 117.633 32.8284 117.146 32.2935V38.7131H113.248V20.5228H117.146V21.7434C117.634 21.2089 118.234 20.7895 118.903 20.5155C119.573 20.2415 120.294 20.1198 121.017 20.1592C121.876 20.1992 122.719 20.4087 123.497 20.7757C124.275 21.1426 124.972 21.6598 125.549 22.2974C126.127 22.9351 126.572 23.6806 126.86 24.491C127.148 25.3015 127.273 26.1609 127.228 27.0198ZM123.329 27.0198C123.314 26.4116 123.12 25.8215 122.771 25.3233C122.422 24.825 121.934 24.4407 121.368 24.2185C120.801 23.9964 120.182 23.9461 119.587 24.0742C118.993 24.2022 118.449 24.5028 118.024 24.9383C117.599 25.3738 117.313 25.9249 117.2 26.5227C117.087 27.1204 117.152 27.7382 117.389 28.2987C117.625 28.8592 118.022 29.3376 118.528 29.6739C119.035 30.0102 119.63 30.1896 120.238 30.1895C120.656 30.2081 121.073 30.1382 121.462 29.9844C121.85 29.8306 122.202 29.5964 122.494 29.2971C122.786 28.9978 123.011 28.6402 123.155 28.2477C123.299 27.8553 123.359 27.4368 123.329 27.0198Z" fill="#808080"/>
<path d="M139.257 29.6173C139.257 32.6059 136.659 33.879 133.853 33.879C132.719 33.9817 131.581 33.7419 130.585 33.1907C129.589 32.6394 128.781 31.802 128.266 30.7867L131.643 28.8639C131.78 29.3332 132.073 29.7414 132.474 30.0204C132.876 30.2994 133.361 30.4323 133.848 30.3969C134.783 30.3969 135.251 30.1108 135.251 29.5923C135.251 28.1617 128.858 28.9164 128.858 24.421C128.858 21.5872 131.249 20.1592 133.952 20.1592C134.968 20.1271 135.974 20.368 136.865 20.857C137.756 21.3459 138.499 22.065 139.018 22.9391L135.692 24.732C135.546 24.3917 135.303 24.1018 134.994 23.8985C134.684 23.6952 134.322 23.5875 133.952 23.5888C133.276 23.5888 132.86 23.8513 132.86 24.316C132.865 25.7978 139.257 24.8095 139.257 29.6173Z" fill="#808080"/>
<path d="M153.497 20.5228V33.5168H149.598V32.2948C149.149 32.834 148.578 33.2589 147.932 33.5345C147.286 33.8101 146.584 33.9286 145.884 33.8803C143.259 33.8803 141.028 32.01 141.028 28.499V20.5228H144.926V27.928C144.893 28.2375 144.928 28.5504 145.029 28.8449C145.13 29.1393 145.293 29.4084 145.508 29.6332C145.723 29.8581 145.985 30.0334 146.275 30.1469C146.564 30.2604 146.875 30.3095 147.186 30.2906C148.615 30.2906 149.602 29.4598 149.602 27.6143V20.5267L153.497 20.5228Z" fill="#808080"/>
<path d="M175.849 25.5379V33.5155H171.951V25.8752C171.951 24.5758 171.327 23.745 170.08 23.745C168.781 23.745 168.052 24.6546 168.052 26.1876V33.5155H164.156V25.8752C164.156 24.5758 163.532 23.745 162.284 23.745C160.984 23.745 160.257 24.6546 160.257 26.1876V33.5155H156.359V20.5215H160.257V21.7159C160.661 21.186 161.192 20.7658 161.8 20.4936C162.408 20.2215 163.075 20.106 163.739 20.1579C164.407 20.1253 165.071 20.266 165.667 20.5664C166.264 20.8668 166.772 21.3167 167.143 21.872C167.575 21.291 168.147 20.829 168.806 20.5293C169.465 20.2295 170.189 20.1017 170.911 20.1579C173.894 20.1592 175.849 22.2894 175.849 25.5379Z" fill="#808080"/>
<path d="M179.146 20.4427C180.744 20.4427 182.039 19.1476 182.039 17.5499C182.039 15.9522 180.744 14.6571 179.146 14.6571C177.548 14.6571 176.253 15.9522 176.253 17.5499C176.253 19.1476 177.548 20.4427 179.146 20.4427Z" fill="#808080"/>
</g>
</svg>
