<svg width="50" height="50" viewBox="0 0 50 50" fill="none" xmlns="http://www.w3.org/2000/svg">
<path d="M12 14.25H39V32.25H43.5V13.125C43.5 11.2969 41.9531 9.75 40.125 9.75H10.875C8.97656 9.75 7.5 11.2969 7.5 13.125V32.25H12V14.25ZM46.875 34.5H4.125C3.49219 34.5 3 35.0625 3 35.625V36.75C3 39.2812 4.96875 41.25 7.5 41.25H43.5C45.9609 41.25 48 39.2812 48 36.75V35.625C48 35.0625 47.4375 34.5 46.875 34.5ZM28.6641 27.6797C28.9453 27.9609 29.2969 28.0312 29.7188 28.0312C30.0703 28.0312 30.4219 27.9609 30.7031 27.6797L34.0781 24.3047C34.5703 23.7422 34.5703 22.8281 34.0781 22.2656L30.7031 18.8906C30.1406 18.3984 29.2266 18.3984 28.6641 18.8906C28.1719 19.4531 28.1719 20.3672 28.6641 20.9297L31.0547 23.25L28.6641 25.6406C28.1719 26.2031 28.1719 27.1172 28.6641 27.6797ZM22.2656 18.8906C21.7031 18.3984 20.7891 18.3984 20.2266 18.8906L16.8516 22.2656C16.3594 22.8281 16.3594 23.7422 16.8516 24.3047L20.2266 27.6797C20.5078 27.9609 20.8594 28.0312 21.2812 28.0312C21.6328 28.0312 21.9844 27.9609 22.2656 27.6797C22.7578 27.1172 22.7578 26.2031 22.2656 25.6406L19.875 23.25L22.2656 20.9297C22.7578 20.3672 22.7578 19.4531 22.2656 18.8906Z" fill="black"/>
</svg>
