<svg width="50" height="50" viewBox="0 0 50 50" fill="none" xmlns="http://www.w3.org/2000/svg">
<path d="M23.4531 7.92188C24.4375 7.57031 25.4922 7.57031 26.4766 7.92188L39.9766 12.7734C41.7344 13.4062 43 15.0938 43 16.9922V34.0781C43 35.9766 41.7344 37.6641 39.9766 38.2969L26.4766 43.1484C25.4922 43.5 24.4375 43.5 23.4531 43.1484L9.95312 38.2969C8.19531 37.6641 7 35.9766 7 34.0781V16.9922C7 15.0938 8.19531 13.4062 9.95312 12.7734L23.4531 7.92188ZM25 12.1406L12.7656 16.5L25 20.8594L37.1641 16.5L25 12.1406ZM27.25 38.0859L38.5 34.0781V20.8594L27.25 24.8672V38.0859Z" fill="black"/>
</svg>
