<svg width="50" height="50" viewBox="0 0 50 50" fill="none" xmlns="http://www.w3.org/2000/svg">
<path d="M41.5938 11.6484C43.3516 13.4062 43.3516 16.2891 41.5938 18.0469L37.9375 21.7031L28.7969 12.5625L32.4531 8.90625C34.2109 7.14844 37.0938 7.14844 38.8516 8.90625L41.5938 11.6484ZM23.875 15.5859C23.2422 14.9531 22.1875 14.9531 21.5547 15.5859L14.3125 22.7578C13.6797 23.4609 12.625 23.4609 11.9922 22.7578C11.2891 22.125 11.2891 21.0703 11.9922 20.3672L19.1641 13.1953C21.1328 11.2266 24.2969 11.2266 26.2656 13.1953L36.3203 23.25L23.1016 36.5391C19.7266 39.9141 15.4375 42.2344 10.7266 43.1484L8.96875 43.5C8.40625 43.6406 7.84375 43.4297 7.49219 43.0078C7.07031 42.6562 6.85938 42.0938 7 41.5312L7.35156 39.7734C8.26562 35.0625 10.5859 30.7734 13.9609 27.3984L24.8594 16.5L23.875 15.5859Z" fill="black"/>
</svg>
