<svg width="50" height="50" viewBox="0 0 50 50" fill="none" xmlns="http://www.w3.org/2000/svg">
<path d="M27.75 9.75C29.5781 9.75 31.125 11.2969 31.125 13.125V13.4062H39.4219C40.125 11.9297 41.6719 10.875 43.5 10.875C45.9609 10.875 48 12.9141 48 15.375C48 17.9062 45.9609 19.875 43.5 19.875C41.6719 19.875 40.125 18.8906 39.4219 17.3438H34.7109C38.8594 20.1562 41.6719 24.7266 42.0234 30H42.375C44.2031 30 45.75 31.5469 45.75 33.375V37.875C45.75 39.7734 44.2031 41.25 42.375 41.25H37.875C35.9766 41.25 34.5 39.7734 34.5 37.875V33.375C34.5 31.5469 35.9766 30 37.875 30H38.0859C37.6641 25.2891 34.6406 21.3516 30.4922 19.5234C29.9297 20.4375 28.875 21 27.75 21H23.25C22.0547 21 21 20.4375 20.4375 19.5234C16.2891 21.3516 13.2656 25.2891 12.8438 30H13.125C14.9531 30 16.5 31.5469 16.5 33.375V37.875C16.5 39.7734 14.9531 41.25 13.125 41.25H8.625C6.72656 41.25 5.25 39.7734 5.25 37.875V33.375C5.25 31.5469 6.72656 30 8.625 30H8.90625C9.25781 24.7266 12.0703 20.1562 16.2188 17.3438H11.5078C10.8047 18.8906 9.25781 19.875 7.5 19.875C4.96875 19.875 3 17.9062 3 15.375C3 12.9141 4.96875 10.875 7.5 10.875C9.25781 10.875 10.8047 11.9297 11.5078 13.4062H19.875V13.125C19.875 11.2969 21.3516 9.75 23.25 9.75H27.75ZM23.8125 17.0625H27.1875V13.6875H23.8125V17.0625ZM9.1875 33.9375V37.3125H12.5625V33.9375H9.1875ZM41.8125 37.3125V33.9375H38.4375V37.3125H41.8125Z" fill="black"/>
</svg>
