<svg width="186" height="50" viewBox="0 0 186 50" fill="none" xmlns="http://www.w3.org/2000/svg">
<mask id="mask0_101_432" style="mask-type:alpha" maskUnits="userSpaceOnUse" x="0" y="0" width="186" height="50">
<rect width="186" height="50" fill="white"/>
</mask>
<g mask="url(#mask0_101_432)">
<path d="M61.5791 35.7229C60.6895 35.7711 59.8096 35.5182 59.0814 35.005C58.7771 34.7795 58.5323 34.4832 58.3681 34.1418C58.204 33.8005 58.1254 33.4243 58.1392 33.0458V19.1814C58.1319 19.1227 58.1381 19.0631 58.1573 19.0072C58.1766 18.9513 58.2083 18.9005 58.2501 18.8586C58.2919 18.8168 58.3427 18.7851 58.3987 18.7658C58.4546 18.7466 58.5142 18.7404 58.5729 18.7477H61.0855C61.3697 18.7477 61.5043 18.8973 61.5043 19.1814V31.9689C61.5043 32.5373 61.7586 32.8214 62.282 32.8214C62.5039 32.8306 62.7259 32.8053 62.9401 32.7466C63.2392 32.7466 63.4037 32.8364 63.4187 33.1056L63.643 34.9751C63.6538 35.0296 63.6528 35.0858 63.64 35.1399C63.6273 35.1939 63.603 35.2447 63.569 35.2886C63.535 35.3325 63.492 35.3687 63.4428 35.3946C63.3937 35.4205 63.3395 35.4355 63.2841 35.4387C62.7337 35.6205 62.1586 35.7164 61.5791 35.7229Z" fill="#808080"/>
<path d="M75.7127 34.1226C74.4502 35.1657 72.8636 35.7364 71.2259 35.7364C69.5881 35.7364 68.0016 35.1657 66.739 34.1226C65.6293 33.0023 65.0068 31.4893 65.0068 29.9124C65.0068 28.3356 65.6293 26.8225 66.739 25.7023C68.004 24.6645 69.5897 24.0973 71.2259 24.0973C72.8621 24.0973 74.4477 24.6645 75.7127 25.7023C76.7968 26.8328 77.4021 28.3386 77.4021 29.905C77.4021 31.4713 76.7968 32.9771 75.7127 34.1076V34.1226ZM69.1021 32.1484C69.688 32.6791 70.4503 32.973 71.2408 32.973C72.0314 32.973 72.7937 32.6791 73.3795 32.1484C73.9098 31.5387 74.2019 30.7579 74.2019 29.9498C74.2019 29.1418 73.9098 28.361 73.3795 27.7513C72.7937 27.2205 72.0314 26.9266 71.2408 26.9266C70.4503 26.9266 69.688 27.2205 69.1021 27.7513C68.5718 28.361 68.2798 29.1418 68.2798 29.9498C68.2798 30.7579 68.5718 31.5387 69.1021 32.1484Z" fill="#808080"/>
<path d="M91.2371 24.4757C91.5213 24.4757 91.6559 24.6253 91.6559 24.9094V35.633C91.682 36.3568 91.5466 37.0773 91.2594 37.7421C90.9723 38.407 90.5406 38.9996 89.9958 39.4767C88.7865 40.5079 87.2312 41.0423 85.6435 40.9723C84.2095 41.0227 82.7945 40.6312 81.5904 39.8506C81.0762 39.513 80.637 39.0732 80.2999 38.5586C79.9629 38.044 79.7353 37.4657 79.6312 36.8594C79.6312 36.5603 79.6312 36.4257 80.035 36.4257H82.5476C82.6543 36.4293 82.7576 36.4637 82.8452 36.5247C82.9328 36.5858 83.0008 36.6708 83.0412 36.7697C83.2041 37.2239 83.529 37.602 83.9535 37.8315C84.4708 38.0985 85.0466 38.2321 85.6286 38.2204C85.9797 38.2396 86.3312 38.1887 86.6625 38.0706C86.9938 37.9525 87.2982 37.7695 87.5579 37.5324C87.7952 37.2844 87.9799 36.9909 88.1007 36.6696C88.2215 36.3483 88.276 36.0058 88.2609 35.6629V34.7207C87.3612 35.3824 86.2663 35.7245 85.15 35.6928C84.3687 35.7212 83.5897 35.5915 82.8598 35.3113C82.1299 35.0312 81.4641 34.6064 80.9024 34.0626C79.8242 32.9471 79.2214 31.4563 79.2214 29.9048C79.2214 28.3533 79.8242 26.8625 80.9024 25.747C81.4668 25.2079 82.1334 24.7873 82.8629 24.5099C83.5924 24.2325 84.37 24.1039 85.15 24.1317C86.2986 24.1014 87.423 24.4656 88.3356 25.1637V24.9244C88.3288 24.8671 88.3348 24.8089 88.3532 24.7542C88.3716 24.6995 88.4019 24.6496 88.442 24.608C88.4821 24.5665 88.5309 24.5344 88.585 24.5141C88.639 24.4938 88.6969 24.4858 88.7544 24.4907L91.2371 24.4757ZM85.4342 33.0306C85.8195 33.0426 86.2027 32.9697 86.5568 32.8172C86.9108 32.6647 87.2271 32.4364 87.4831 32.1482C87.9804 31.5061 88.2502 30.7169 88.2502 29.9048C88.2502 29.0926 87.9804 28.3035 87.4831 27.6614C87.2279 27.3771 86.9136 27.1521 86.5622 27.0023C86.2108 26.8524 85.8309 26.7813 85.4491 26.7939C85.0593 26.7817 84.6716 26.8542 84.3126 27.0066C83.9537 27.1589 83.6321 27.3875 83.3702 27.6763C82.8194 28.2906 82.5296 29.0953 82.5626 29.9197C82.5356 30.7361 82.8188 31.5323 83.3552 32.1482C83.6178 32.4363 83.9395 32.6643 84.2983 32.8166C84.6571 32.9689 85.0445 33.0419 85.4342 33.0306Z" fill="#808080"/>
<path d="M104.563 34.1226C103.298 35.1604 101.712 35.7275 100.076 35.7275C98.44 35.7275 96.8544 35.1604 95.5894 34.1226C94.5043 32.9895 93.8986 31.4813 93.8986 29.9124C93.8986 28.3436 94.5043 26.8353 95.5894 25.7023C96.8556 24.6672 98.4408 24.1017 100.076 24.1017C101.712 24.1017 103.297 24.6672 104.563 25.7023C105.647 26.8328 106.252 28.3386 106.252 29.905C106.252 31.4713 105.647 32.9771 104.563 34.1076V34.1226ZM97.9375 32.1484C98.2242 32.4211 98.5622 32.6343 98.9319 32.7755C99.3016 32.9167 99.6956 32.9831 100.091 32.971C100.484 32.9811 100.875 32.9137 101.242 32.7726C101.609 32.6314 101.945 32.4193 102.23 32.1484C102.752 31.5346 103.038 30.7553 103.038 29.9498C103.038 29.1443 102.752 28.3651 102.23 27.7513C101.945 27.4803 101.609 27.2682 101.242 27.1271C100.875 26.9859 100.484 26.9185 100.091 26.9287C99.6956 26.9165 99.3016 26.983 98.9319 27.1242C98.5622 27.2654 98.2242 27.4785 97.9375 27.7513C97.4159 28.3651 97.1295 29.1443 97.1295 29.9498C97.1295 30.7553 97.4159 31.5346 97.9375 32.1484Z" fill="#808080"/>
<path d="M111.652 21.9331C111.257 22.2791 110.749 22.4699 110.224 22.4699C109.699 22.4699 109.191 22.2791 108.796 21.9331C108.616 21.7639 108.474 21.5599 108.376 21.3336C108.278 21.1073 108.228 20.8634 108.228 20.617C108.228 20.3705 108.278 20.1266 108.376 19.9003C108.474 19.674 108.616 19.47 108.796 19.3008C109.195 18.9634 109.701 18.7783 110.224 18.7783C110.747 18.7783 111.253 18.9634 111.652 19.3008C111.832 19.47 111.974 19.674 112.072 19.9003C112.17 20.1266 112.22 20.3705 112.22 20.617C112.22 20.8634 112.17 21.1073 112.072 21.3336C111.974 21.5599 111.832 21.7639 111.652 21.9331ZM111.966 35.7227C111.077 35.7663 110.199 35.5138 109.469 35.0048C109.169 34.7759 108.929 34.4786 108.767 34.1377C108.606 33.7969 108.528 33.4224 108.541 33.0455V24.9094C108.534 24.8507 108.54 24.7911 108.56 24.7352C108.579 24.6792 108.611 24.6284 108.652 24.5866C108.694 24.5448 108.745 24.513 108.801 24.4938C108.857 24.4746 108.916 24.4684 108.975 24.4756H111.488C111.772 24.4756 111.907 24.6252 111.907 24.9094V31.9687C111.907 32.537 112.161 32.8212 112.669 32.8212C112.896 32.8293 113.123 32.8041 113.342 32.7464C113.641 32.7464 113.806 32.8361 113.821 33.1053L114.045 34.9749C114.056 35.0294 114.055 35.0855 114.042 35.1396C114.03 35.1937 114.005 35.2444 113.971 35.2883C113.937 35.3323 113.894 35.3684 113.845 35.3943C113.796 35.4202 113.742 35.4353 113.686 35.4385C113.131 35.6213 112.551 35.7172 111.966 35.7227Z" fill="#808080"/>
<path d="M123.288 24.1169C124.073 24.0859 124.856 24.2129 125.591 24.4903C126.326 24.7678 126.997 25.1901 127.566 25.7321C128.623 26.8672 129.211 28.361 129.211 29.9124C129.211 31.4638 128.623 32.9576 127.566 34.0926C127 34.6395 126.329 35.0659 125.594 35.3461C124.859 35.6263 124.074 35.7545 123.288 35.7228C122.168 35.7477 121.071 35.4064 120.162 34.7507V40.1499C120.162 40.434 120.013 40.5686 119.729 40.5686H117.216C117.159 40.5793 117.1 40.5759 117.044 40.5587C116.988 40.5414 116.937 40.5108 116.896 40.4696C116.855 40.4284 116.824 40.3777 116.807 40.322C116.79 40.2663 116.787 40.2072 116.797 40.1499V27.8858C116.815 27.7659 116.804 27.6434 116.766 27.5284C116.728 27.4133 116.663 27.3087 116.578 27.2229C116.492 27.1372 116.387 27.0727 116.272 27.0346C116.157 26.9965 116.035 26.9858 115.915 27.0034H115.421C115.092 27.0034 114.928 26.8838 114.928 26.6445V24.8796C114.92 24.7704 114.95 24.6619 115.012 24.5721C115.075 24.4822 115.167 24.4166 115.272 24.3861C115.789 24.198 116.337 24.1068 116.887 24.1169C117.436 24.0683 117.987 24.1847 118.469 24.4511C118.951 24.7176 119.343 25.122 119.594 25.6125C120.076 25.1252 120.652 24.7412 121.287 24.484C121.922 24.2269 122.603 24.1019 123.288 24.1169ZM120.955 32.1483C121.222 32.427 121.542 32.6488 121.897 32.8003C122.252 32.9519 122.633 33.03 123.019 33.03C123.405 33.03 123.786 32.9519 124.141 32.8003C124.496 32.6488 124.816 32.427 125.083 32.1483C125.645 31.5218 125.94 30.7008 125.906 29.86C125.945 29.0185 125.649 28.1957 125.083 27.5717C124.816 27.293 124.496 27.0712 124.141 26.9197C123.786 26.7682 123.405 26.6901 123.019 26.6901C122.633 26.6901 122.252 26.7682 121.897 26.9197C121.542 27.0712 121.222 27.293 120.955 27.5717C120.411 28.2068 120.128 29.0245 120.162 29.86C120.132 30.695 120.415 31.5111 120.955 32.1483Z" fill="#808080"/>
<path d="M136.27 35.7227C134.927 35.7779 133.596 35.4567 132.426 34.7954C131.957 34.5127 131.557 34.1279 131.257 33.6696C130.957 33.2114 130.763 32.6913 130.691 32.1481C130.691 31.849 130.796 31.6995 131.125 31.6995H133.324C133.428 31.7035 133.53 31.7364 133.617 31.7945C133.704 31.8525 133.773 31.9335 133.817 32.0285C134.131 32.8361 134.954 33.2399 136.27 33.2399C136.729 33.2609 137.186 33.1685 137.601 32.9707C137.744 32.9061 137.867 32.8037 137.957 32.6747C138.046 32.5456 138.099 32.3946 138.11 32.2379C138.11 31.849 137.87 31.5798 137.392 31.4003C136.824 31.2114 136.237 31.086 135.642 31.0264C134.937 30.9466 134.237 30.8217 133.548 30.6525C132.878 30.5008 132.268 30.1518 131.798 29.6505C131.521 29.3097 131.318 28.9157 131.2 28.4928C131.081 28.07 131.052 27.6273 131.112 27.1925C131.172 26.7576 131.321 26.3398 131.55 25.9651C131.779 25.5903 132.082 25.2666 132.441 25.0141C133.519 24.3273 134.784 23.9928 136.061 24.0569C137.297 24.0151 138.519 24.3208 139.59 24.9393C140.022 25.1837 140.394 25.5213 140.678 25.9275C140.963 26.3337 141.153 26.7983 141.236 27.2874C141.236 27.5865 141.101 27.7361 140.832 27.7361H138.618C138.525 27.7416 138.432 27.7189 138.352 27.6708C138.272 27.6228 138.208 27.5517 138.169 27.4669C138.022 27.1126 137.743 26.8288 137.392 26.6742C136.995 26.4668 136.553 26.3639 136.106 26.3751C135.667 26.3512 135.23 26.4387 134.834 26.6293C134.695 26.6831 134.575 26.7774 134.49 26.9C134.404 27.0226 134.358 27.1679 134.356 27.3173C134.365 27.5218 134.44 27.7179 134.569 27.8767C134.699 28.0356 134.875 28.1488 135.074 28.1997C135.648 28.4162 136.245 28.5667 136.853 28.6484C137.553 28.7404 138.247 28.8703 138.932 29.0373C139.603 29.189 140.212 29.538 140.682 30.0393C140.934 30.3155 141.128 30.6388 141.254 30.9905C141.379 31.3422 141.434 31.7153 141.415 32.0883C141.428 32.6053 141.307 33.1168 141.063 33.573C140.819 34.0291 140.461 34.4142 140.024 34.6907C138.907 35.408 137.597 35.768 136.27 35.7227Z" fill="#808080"/>
<path d="M157.224 34.9752C157.232 35.0283 157.23 35.0826 157.217 35.1348C157.204 35.187 157.181 35.2362 157.149 35.2794C157.117 35.3226 157.077 35.3589 157.03 35.3863C156.984 35.4137 156.933 35.4315 156.88 35.4388C156.334 35.6171 155.764 35.7129 155.19 35.723C154.621 35.7819 154.047 35.693 153.523 35.4651C152.999 35.2371 152.543 34.8778 152.198 34.4218C151.142 35.3301 149.776 35.7961 148.385 35.723C147.739 35.7528 147.093 35.6471 146.491 35.4127C145.888 35.1783 145.341 34.8204 144.885 34.362C144.432 33.8817 144.08 33.3149 143.852 32.6955C143.623 32.0762 143.522 31.417 143.554 30.7576V24.9097C143.554 24.6255 143.688 24.476 143.973 24.476H146.485C146.769 24.476 146.904 24.6255 146.904 24.9097V30.3089C146.877 30.9815 147.107 31.6394 147.547 32.1485C147.767 32.3817 148.034 32.5651 148.331 32.6864C148.627 32.8076 148.947 32.8639 149.267 32.8514C149.595 32.8658 149.922 32.815 150.23 32.702C150.538 32.5891 150.821 32.4162 151.062 32.1933C151.29 31.9585 151.467 31.6794 151.583 31.3732C151.698 31.0671 151.75 30.7405 151.735 30.4136V24.9097C151.735 24.6255 151.869 24.476 152.154 24.476H154.696C154.98 24.476 155.115 24.6255 155.115 24.9097V31.9541C155.115 32.5373 155.369 32.8215 155.863 32.8215C156.094 32.8305 156.326 32.8053 156.551 32.7467C156.607 32.7309 156.667 32.728 156.724 32.7384C156.782 32.7488 156.837 32.7721 156.884 32.8067C156.932 32.8412 156.971 32.886 156.999 32.9378C157.026 32.9896 157.042 33.047 157.044 33.1057L157.224 34.9752Z" fill="#808080"/>
<path d="M180.989 34.9748C181.002 35.0284 181.004 35.0842 180.993 35.1384C180.982 35.1925 180.959 35.2435 180.926 35.2878C180.894 35.3322 180.851 35.3687 180.803 35.3947C180.754 35.4207 180.7 35.4357 180.645 35.4385C180.089 35.6193 179.509 35.7151 178.925 35.7226C178.036 35.7685 177.157 35.5158 176.427 35.0048C176.112 34.7858 175.856 34.4925 175.681 34.1507C175.506 33.8089 175.418 33.4293 175.425 33.0455V29.5308C175.457 28.8601 175.232 28.2026 174.797 27.6912C174.587 27.4574 174.328 27.2731 174.039 27.1516C173.749 27.03 173.436 26.9742 173.122 26.9883C172.839 26.9776 172.558 27.0312 172.299 27.1452C172.039 27.2592 171.81 27.4306 171.626 27.6463C171.232 28.1475 171.03 28.7738 171.058 29.4111V34.93C171.058 35.2141 170.923 35.3637 170.639 35.3637H168.112C168.053 35.371 167.993 35.3648 167.938 35.3455C167.882 35.3263 167.831 35.2946 167.789 35.2528C167.747 35.2109 167.715 35.1601 167.696 35.1042C167.677 35.0483 167.671 34.9887 167.678 34.93V29.5308C167.711 28.8675 167.504 28.2145 167.095 27.6912C166.912 27.4714 166.684 27.2944 166.425 27.1729C166.167 27.0514 165.885 26.9884 165.599 26.9883C165.294 26.9759 164.99 27.0282 164.706 27.1416C164.423 27.255 164.166 27.427 163.954 27.6463C163.526 28.1315 163.306 28.7652 163.341 29.4111V34.93C163.348 34.9887 163.342 35.0483 163.323 35.1042C163.303 35.1601 163.272 35.2109 163.23 35.2528C163.188 35.2946 163.137 35.3263 163.081 35.3455C163.025 35.3648 162.966 35.371 162.907 35.3637H160.469C160.185 35.3637 160.05 35.2141 160.05 34.93V27.8856C160.068 27.7657 160.057 27.6433 160.019 27.5282C159.981 27.4131 159.917 27.3085 159.831 27.2228C159.745 27.137 159.641 27.0725 159.525 27.0344C159.41 26.9963 159.288 26.9856 159.168 27.0032H158.674C158.345 27.0032 158.181 26.8836 158.181 26.6443V24.8794C158.173 24.7702 158.203 24.6617 158.266 24.5719C158.328 24.482 158.42 24.4164 158.525 24.3859C159.042 24.1978 159.59 24.1066 160.14 24.1167C160.668 24.0717 161.199 24.177 161.67 24.4204C162.141 24.6639 162.533 25.0356 162.802 25.4926C163.307 25.0144 163.905 24.6454 164.558 24.4086C165.212 24.1719 165.907 24.0725 166.601 24.1167C167.275 24.0838 167.947 24.2102 168.563 24.4856C169.179 24.7611 169.721 25.1778 170.146 25.702C170.641 25.1641 171.249 24.7428 171.927 24.4686C172.604 24.1945 173.334 24.0742 174.064 24.1167C174.717 24.0861 175.369 24.1913 175.979 24.4256C176.589 24.6598 177.144 25.0181 177.609 25.4777C178.063 25.957 178.416 26.5237 178.644 27.1433C178.873 27.7629 178.974 28.4225 178.94 29.0821V31.9687C178.94 32.537 179.194 32.8212 179.673 32.8212C179.905 32.832 180.137 32.8067 180.361 32.7464C180.67 32.7464 180.834 32.866 180.854 33.1053L180.989 34.9748Z" fill="#808080"/>
<path d="M5.6132 22.5315C6.71662 18.0965 9.27211 14.1582 12.8728 11.3436C16.4734 8.52902 20.9122 7 25.4824 7C30.0526 7 34.4915 8.52902 38.0921 11.3436C41.6928 14.1582 44.2483 18.0965 45.3517 22.5315H43.5569C40.5294 22.487 37.5638 23.3918 35.0768 25.1189C34.9333 25.2229 34.7834 25.3178 34.6281 25.4031H34.4187C34.2634 25.3178 34.1136 25.2229 33.9701 25.1189C31.461 23.4318 28.506 22.5306 25.4824 22.5306C22.4589 22.5306 19.5039 23.4318 16.9948 25.1189C16.8513 25.2229 16.7015 25.3178 16.5461 25.4031H16.3368C16.1815 25.3178 16.0316 25.2229 15.8881 25.1189C13.4011 23.3918 10.4355 22.487 7.40794 22.5315H5.6132ZM40.3264 31.909C41.2477 31.1915 42.3896 30.8162 43.5569 30.8472H45.9649V26.0462H43.5569C41.5008 26.0214 39.4917 26.6613 37.8287 27.8709C36.8929 28.5608 35.7608 28.933 34.5982 28.933C33.4356 28.933 32.3035 28.5608 31.3677 27.8709C29.6626 26.6839 27.6348 26.0476 25.5572 26.0476C23.4796 26.0476 21.4519 26.6839 19.7468 27.8709C18.811 28.5608 17.6789 28.933 16.5162 28.933C15.3536 28.933 14.2215 28.5608 13.2857 27.8709C11.6022 26.6459 9.56431 26.0051 7.48272 26.0462H5V30.8472H7.40794C8.57528 30.8162 9.71715 31.1915 10.6385 31.909C12.3405 33.0968 14.366 33.7336 16.4415 33.7336C18.5169 33.7336 20.5424 33.0968 22.2444 31.909C23.1669 31.1937 24.308 30.8187 25.475 30.8472C26.6427 30.8137 27.7854 31.1893 28.7055 31.909C30.4106 33.096 32.4384 33.7323 34.516 33.7323C36.5935 33.7323 38.6213 33.096 40.3264 31.909ZM40.3264 40.4939C41.2477 39.7764 42.3896 39.401 43.5569 39.432H45.9649V34.6311H43.5569C41.5008 34.6062 39.4917 35.2462 37.8287 36.4557C36.8929 37.1456 35.7608 37.5178 34.5982 37.5178C33.4356 37.5178 32.3035 37.1456 31.3677 36.4557C29.6626 35.2687 27.6348 34.6325 25.5572 34.6325C23.4796 34.6325 21.4519 35.2687 19.7468 36.4557C18.811 37.1456 17.6789 37.5178 16.5162 37.5178C15.3536 37.5178 14.2215 37.1456 13.2857 36.4557C11.6022 35.2307 9.56431 34.5899 7.48272 34.6311H5V39.432H7.40794C8.57528 39.401 9.71715 39.7764 10.6385 40.4939C12.3405 41.6816 14.366 42.3185 16.4415 42.3185C18.5169 42.3185 20.5424 41.6816 22.2444 40.4939C23.1669 39.7786 24.308 39.4035 25.475 39.432C26.6427 39.3985 27.7854 39.7741 28.7055 40.4939C30.4106 41.6808 32.4384 42.3171 34.516 42.3171C36.5935 42.3171 38.6213 41.6808 40.3264 40.4939Z" fill="#808080"/>
</g>
</svg>
