<svg width="186" height="50" viewBox="0 0 186 50" fill="none" xmlns="http://www.w3.org/2000/svg">
<mask id="mask0_101_427" style="mask-type:alpha" maskUnits="userSpaceOnUse" x="0" y="0" width="186" height="50">
<rect width="186" height="50" fill="white"/>
</mask>
<g mask="url(#mask0_101_427)">
<path d="M46.8356 14.3837H50.9452V34.1782H46.8356V14.3837Z" fill="#808080"/>
<path d="M53.2466 27.3973C53.2466 25.9731 53.6695 24.5811 54.4615 23.3975C55.2536 22.2139 56.3792 21.2922 57.6958 20.7491C59.0123 20.206 60.4604 20.066 61.8566 20.3468C63.2528 20.6277 64.5341 21.3167 65.5383 22.3266C66.5424 23.3365 67.2241 24.6218 67.4969 26.0196C67.7698 27.4174 67.6215 28.8647 67.0708 30.178C66.5202 31.4914 65.592 32.6118 64.4039 33.3971C63.2159 34.1823 61.8214 34.5972 60.3973 34.5891C59.4527 34.5964 58.5162 34.4152 57.6426 34.0558C56.769 33.6965 55.9759 33.1664 55.3099 32.4965C54.6439 31.8267 54.1183 31.0306 53.764 30.155C53.4097 29.2794 53.2338 28.3418 53.2466 27.3973ZM63.5479 27.3973C63.5318 26.7833 63.335 26.1877 62.9821 25.685C62.6292 25.1823 62.136 24.7948 61.564 24.571C60.9921 24.3472 60.3669 24.2969 59.7665 24.4266C59.1662 24.5562 58.6174 24.8599 58.1888 25.2998C57.7601 25.7397 57.4707 26.2962 57.3567 26.8998C57.2427 27.5033 57.3092 28.127 57.5478 28.6929C57.7864 29.2588 58.1866 29.7419 58.6983 30.0816C59.21 30.4213 59.8105 30.6025 60.4247 30.6028C60.8428 30.6109 61.2582 30.5327 61.6448 30.3731C62.0313 30.2134 62.3808 29.9757 62.6714 29.6749C62.9619 29.3741 63.1873 29.0165 63.3334 28.6246C63.4795 28.2327 63.5432 27.8149 63.5205 27.3973H63.5479Z" fill="#808080"/>
<path d="M83.8082 20.6167V33.5071C83.8082 38.0551 80.2466 39.9866 76.6439 39.9866C75.3731 40.0909 74.0984 39.8384 72.9634 39.2576C71.8283 38.6767 70.8779 37.7906 70.2192 36.6989L73.685 34.6989C73.9658 35.2652 74.4126 35.7324 74.9656 36.0383C75.5187 36.3442 76.1519 36.4743 76.7808 36.4112C77.1815 36.4606 77.5881 36.4208 77.9716 36.2947C78.355 36.1687 78.7059 35.9594 78.9991 35.6819C79.2923 35.4044 79.5205 35.0656 79.6675 34.6897C79.8145 34.3137 79.8766 33.9099 79.8493 33.5071V32.2606C79.3711 32.8404 78.7643 33.3008 78.0771 33.6051C77.3899 33.9095 76.6412 34.0495 75.8904 34.014C74.0739 34.014 72.3317 33.2924 71.0472 32.0079C69.7627 30.7234 69.0411 28.9812 69.0411 27.1647C69.0411 25.3481 69.7627 23.606 71.0472 22.3215C72.3317 21.037 74.0739 20.3154 75.8904 20.3154C76.6412 20.2799 77.3899 20.4198 78.0771 20.7242C78.7643 21.0286 79.3711 21.489 79.8493 22.0688V20.6989L83.8082 20.6167ZM79.8493 27.1236C79.8767 26.4682 79.7073 25.8196 79.3631 25.2612C79.0188 24.7029 78.5154 24.2602 77.9176 23.9903C77.3198 23.7203 76.6549 23.6353 76.0084 23.7463C75.3619 23.8573 74.7634 24.1591 74.2898 24.6129C73.8162 25.0668 73.4892 25.6519 73.3508 26.2931C73.2125 26.9343 73.2691 27.6023 73.5134 28.211C73.7577 28.8198 74.1785 29.3416 74.7217 29.7092C75.2649 30.0769 75.9057 30.2737 76.5617 30.2743C76.9897 30.3051 77.4194 30.2458 77.8231 30.1002C78.2268 29.9547 78.5955 29.726 78.9053 29.4291C79.2151 29.1322 79.4592 28.7736 79.6218 28.3765C79.7844 27.9793 79.8619 27.5525 79.8493 27.1236Z" fill="#808080"/>
<path d="M86.1233 27.3974C86.1233 25.9744 86.5454 24.5834 87.3363 23.4004C88.1271 22.2174 89.2511 21.2957 90.5661 20.7517C91.881 20.2078 93.3277 20.0662 94.7232 20.3448C96.1186 20.6234 97.4 21.3097 98.4053 22.3169C99.4105 23.3241 100.094 24.6068 100.37 26.0028C100.646 27.3987 100.502 28.8452 99.9555 30.1591C99.409 31.473 98.4851 32.5952 97.3006 33.3838C96.1162 34.1724 94.7243 34.5919 93.3014 34.5892C92.355 34.5984 91.4164 34.4185 90.5404 34.0602C89.6645 33.7018 88.8689 33.1722 88.2004 32.5024C87.5318 31.8325 87.0037 31.0359 86.647 30.1593C86.2904 29.2827 86.1123 28.3437 86.1233 27.3974ZM96.4247 27.3974C96.4085 26.7828 96.2113 26.1867 95.8578 25.6838C95.5043 25.1808 95.0103 24.7933 94.4375 24.5699C93.8648 24.3465 93.2389 24.297 92.6382 24.4278C92.0375 24.5585 91.4887 24.8636 91.0607 25.3049C90.6326 25.7461 90.3443 26.3039 90.2319 26.9083C90.1194 27.5127 90.1878 28.1368 90.4285 28.7025C90.6692 29.2682 91.0715 29.7503 91.585 30.0883C92.0985 30.4264 92.7003 30.6054 93.3151 30.6029C93.7332 30.611 94.1486 30.5328 94.5352 30.3732C94.9217 30.2135 95.2712 29.9759 95.5618 29.675C95.8523 29.3742 96.0777 29.0166 96.2238 28.6247C96.3699 28.2328 96.4337 27.815 96.411 27.3974H96.4247Z" fill="#808080"/>
<path d="M102.384 16.9866C102.384 16.5043 102.527 16.0329 102.795 15.6319C103.062 15.2309 103.443 14.9184 103.889 14.7338C104.334 14.5493 104.825 14.501 105.298 14.5951C105.771 14.6892 106.205 14.9214 106.546 15.2624C106.887 15.6034 107.119 16.0379 107.213 16.5109C107.308 16.9839 107.259 17.4742 107.075 17.9197C106.89 18.3653 106.578 18.7461 106.177 19.014C105.776 19.2819 105.304 19.425 104.822 19.425C104.177 19.4178 103.561 19.1586 103.106 18.7029C102.65 18.2472 102.391 17.6311 102.384 16.9866ZM102.781 20.6167H106.89V34.1784H102.781V20.6167Z" fill="#808080"/>
<path d="M124.479 27.3975C124.526 28.2994 124.393 29.2016 124.089 30.052C123.785 30.9024 123.316 31.6843 122.708 32.3527C122.101 33.0212 121.368 33.5629 120.55 33.9467C119.733 34.3306 118.847 34.5489 117.945 34.5893C117.18 34.6402 116.412 34.5176 115.701 34.2306C114.989 33.9436 114.352 33.4996 113.836 32.9318V39.6304H109.726V20.6167H113.836V21.8907C114.352 21.3245 114.99 20.8825 115.702 20.5979C116.414 20.3132 117.181 20.1932 117.945 20.2468C118.844 20.2873 119.726 20.5044 120.54 20.8856C121.355 21.2669 122.087 21.8049 122.693 22.4689C123.3 23.1329 123.77 23.9099 124.077 24.7556C124.383 25.6012 124.52 26.499 124.479 27.3975ZM120.37 27.3975C120.354 26.7613 120.15 26.144 119.785 25.623C119.419 25.102 118.908 24.7005 118.315 24.4687C117.722 24.237 117.074 24.1854 116.452 24.3204C115.83 24.4554 115.262 24.771 114.819 25.2275C114.375 25.6841 114.077 26.2614 113.96 26.8871C113.843 27.5127 113.914 28.1589 114.163 28.7446C114.412 29.3303 114.828 29.8295 115.36 30.1796C115.891 30.5297 116.514 30.7151 117.151 30.7126C117.587 30.7311 118.022 30.6572 118.427 30.4959C118.832 30.3345 119.199 30.0893 119.503 29.7763C119.807 29.4632 120.041 29.0895 120.191 28.6796C120.34 28.2696 120.401 27.8327 120.37 27.3975Z" fill="#808080"/>
<path d="M136.986 30.1097C136.986 33.233 134.247 34.5618 131.342 34.5618C130.158 34.6684 128.969 34.4173 127.928 33.841C126.888 33.2647 126.045 32.3896 125.507 31.3289L129.041 29.3289C129.181 29.8177 129.485 30.2436 129.901 30.5353C130.318 30.8271 130.822 30.967 131.329 30.9316C132.301 30.9316 132.795 30.6302 132.795 30.0823C132.795 28.5891 126.123 29.3837 126.123 24.685C126.123 21.7261 128.616 20.2467 131.438 20.2467C132.511 20.1987 133.577 20.442 134.522 20.9509C135.468 21.4598 136.258 22.2153 136.808 23.1371L133.274 25.0001C133.118 24.6467 132.863 24.3461 132.539 24.1346C132.216 23.9231 131.838 23.8098 131.452 23.8083C130.74 23.8083 130.315 24.0823 130.315 24.5618C130.315 26.1234 136.986 25.096 136.986 30.1097Z" fill="#808080"/>
<path d="M151.877 20.6166V34.1783H147.767V32.9043C147.3 33.4682 146.707 33.9145 146.036 34.2072C145.365 34.4999 144.635 34.6307 143.904 34.5892C141.164 34.5892 138.822 32.6303 138.822 28.9728V20.6166H142.932V28.3564C142.899 28.6799 142.938 29.0067 143.044 29.314C143.15 29.6213 143.322 29.9019 143.547 30.1363C143.773 30.3708 144.046 30.5535 144.349 30.6719C144.652 30.7903 144.977 30.8416 145.301 30.8221C146.781 30.8221 147.822 29.9454 147.822 28.0824V20.6166H151.877Z" fill="#808080"/>
<path d="M175.164 25.8494V34.1782H171.055V26.2056C171.055 24.8357 170.411 23.9864 169.11 23.9864C167.808 23.9864 166.986 24.9316 166.986 26.5343V34.1782H162.877V26.2056C162.877 24.8357 162.233 23.9864 160.932 23.9864C159.63 23.9864 158.808 24.9316 158.808 26.5343V34.1782H154.699V20.6165H158.808V21.8631C159.234 21.3123 159.79 20.8762 160.426 20.594C161.062 20.3118 161.758 20.1924 162.452 20.2466C163.147 20.2104 163.84 20.3555 164.462 20.6677C165.084 20.9799 165.614 21.4485 166 22.0275C166.451 21.4226 167.049 20.942 167.736 20.6306C168.424 20.3191 169.179 20.1871 169.932 20.2466C173.137 20.2466 175.164 22.4658 175.164 25.8494Z" fill="#808080"/>
<path d="M22.3562 10.8219V5H4V45H22.3562V39.1781C18.5959 39.1781 14.9897 37.6843 12.3307 35.0254C9.67184 32.3665 8.17808 28.7603 8.17808 25C8.17808 21.2397 9.67184 17.6335 12.3307 14.9746C14.9897 12.3157 18.5959 10.8219 22.3562 10.8219Z" fill="#808080"/>
<path d="M22.3562 10.8219V39.1781C26.1164 39.1781 29.7227 37.6843 32.3816 35.0254C35.0405 32.3665 36.5343 28.7603 36.5343 25C36.5343 21.2397 35.0405 17.6335 32.3816 14.9746C29.7227 12.3157 26.1164 10.8219 22.3562 10.8219Z" fill="#808080"/>
<path d="M178.616 20.5345C180.281 20.5345 181.63 19.1852 181.63 17.5208C181.63 15.8564 180.281 14.5071 178.616 14.5071C176.952 14.5071 175.603 15.8564 175.603 17.5208C175.603 19.1852 176.952 20.5345 178.616 20.5345Z" fill="#808080"/>
</g>
</svg>
