<svg width="50" height="50" viewBox="0 0 50 50" fill="none" xmlns="http://www.w3.org/2000/svg">
<path d="M43 25.5C43 35.4844 34.9141 43.5 25 43.5C15.0156 43.5 7 35.4844 7 25.5C7 15.5859 15.0156 7.5 25 7.5C34.9141 7.5 43 15.5859 43 25.5ZM11.0078 21.0703L11.7109 22.2656C12.2734 23.25 13.1875 24.0234 14.3828 24.375L18.3906 25.5C19.6562 25.8516 20.5 26.9766 20.5 28.2422V31.0547C20.5 31.8281 20.9219 32.5312 21.625 32.8125C22.2578 33.1641 22.75 33.8672 22.75 34.6406V37.3828C22.75 38.5078 23.7344 39.2812 24.7891 39C25.9844 38.6484 26.8281 37.7344 27.1094 36.6094L27.3203 35.8359C27.6016 34.6406 28.375 33.6562 29.4297 33.0234L29.9922 32.6719C31.0469 32.1094 31.75 30.9844 31.75 29.7891V29.1562C31.75 28.3125 31.3281 27.3984 30.6953 26.7656L30.4844 26.5547C29.8516 25.9219 28.9375 25.5 28.0938 25.5H25C24.2266 25.5 23.4531 25.3594 22.8203 24.9375L20.3594 23.5312C20.0781 23.3906 19.8672 23.1094 19.7266 22.7578C19.5156 22.125 19.7969 21.3516 20.4297 21.0703L20.8516 20.8594C21.3438 20.5781 21.8359 20.5781 22.3281 20.7188L24.0156 21.2812C24.5781 21.4922 25.2109 21.2109 25.5625 20.7188C25.8438 20.2266 25.8438 19.5938 25.4219 19.1016L24.5078 17.9766C23.8047 17.1328 23.8047 15.9375 24.5078 15.0938L25.6328 13.8281C26.2656 13.0547 26.3359 12.0703 25.8438 11.2266L25.7031 10.9453C25.4219 10.9453 25.2109 10.875 25 10.875C18.4609 10.875 12.9062 15.1641 11.0078 21.0703ZM37.7266 18.3984L35.9688 19.1016C34.8438 19.5938 34.2812 20.7891 34.6328 21.9141L35.8281 25.5C36.0391 26.2031 36.6719 26.7656 37.4453 26.9766L39.4844 27.4688C39.5547 26.8359 39.625 26.2031 39.625 25.5C39.625 22.9688 38.9219 20.5078 37.7266 18.3984Z" fill="black"/>
</svg>
