<svg width="20" height="20" viewBox="0 0 20 20" fill="none" xmlns="http://www.w3.org/2000/svg">
<path d="M12.4813 5.85017V2.51307C12.4813 2.29181 12.5692 2.07961 12.7256 1.92315C12.8821 1.7667 13.0943 1.6788 13.3156 1.6788C13.5368 1.6788 13.749 1.7667 13.9055 1.92315C14.0619 2.07961 14.1498 2.29181 14.1498 2.51307V4.69136C14.6754 4.16243 18.0718 0.748584 18.5656 0.254694C18.6426 0.175012 18.7347 0.111456 18.8364 0.067732C18.9382 0.0240086 19.0477 0.000994098 19.1585 3.14995e-05C19.2693 -0.0009311 19.3791 0.0201775 19.4816 0.0621255C19.5842 0.104074 19.6773 0.166021 19.7556 0.244353C19.834 0.322685 19.8959 0.415834 19.9379 0.518363C19.9798 0.620892 20.0009 0.730749 20 0.841523C19.999 0.952298 19.976 1.06177 19.9323 1.16356C19.8885 1.26534 19.825 1.3574 19.7453 1.43436C19.2514 1.92825 15.8726 5.32625 15.3504 5.85017H17.4869C17.7082 5.85017 17.9204 5.93807 18.0768 6.09452C18.2333 6.25098 18.3212 6.46318 18.3212 6.68444C18.3212 6.90571 18.2333 7.11791 18.0768 7.27436C17.9204 7.43082 17.7082 7.51872 17.4869 7.51872H14.1498C13.7073 7.51872 13.2829 7.34293 12.97 7.03001C12.6571 6.7171 12.4813 6.2927 12.4813 5.85017ZM19.2347 13.9752C19.7182 14.46 19.9897 15.1167 19.9897 15.8014C19.9897 16.4861 19.7182 17.1428 19.2347 17.6276L18.4739 18.5036C11.6403 25.0426 -4.98508 8.42224 1.45468 1.56784L2.4141 0.733567C2.89934 0.263492 3.55015 0.00335968 4.22572 0.00944872C4.90129 0.0155378 5.54731 0.287358 6.024 0.766104C6.04986 0.791132 7.59494 2.80006 7.59494 2.80006C8.05205 3.28273 8.3064 3.92248 8.30547 4.58724C8.30454 5.25201 8.0484 5.89105 7.58993 6.37243L6.62384 7.58713C7.15861 8.88611 7.94471 10.0667 8.93702 11.061C9.92933 12.0553 11.1083 12.8438 12.4062 13.3812L13.6284 12.4092C14.1088 11.9496 14.7478 11.6926 15.4128 11.6916C16.0777 11.6907 16.7174 11.9459 17.1991 12.4042C17.1991 12.4042 19.2089 13.9501 19.2347 13.9752ZM18.0876 15.1882C18.0876 15.1882 16.0912 13.6515 16.0653 13.6264C15.8934 13.456 15.6612 13.3604 15.4192 13.3604C15.1771 13.3604 14.9449 13.456 14.773 13.6264C14.7505 13.6481 13.0678 14.9896 13.0678 14.9896C12.9544 15.0799 12.8194 15.1391 12.6762 15.1613C12.533 15.1835 12.3864 15.1681 12.251 15.1165C10.5686 14.4905 9.04051 13.5102 7.77021 12.2419C6.49992 10.9736 5.51716 9.44705 4.88856 7.76566C4.83282 7.62839 4.81465 7.47875 4.83591 7.33212C4.85718 7.1855 4.9171 7.04718 5.00952 6.93139C5.00952 6.93139 6.35104 5.25116 6.37356 5.22947C6.54398 5.0576 6.6396 4.82536 6.6396 4.58332C6.6396 4.34129 6.54398 4.10905 6.37356 3.93718C6.34853 3.91215 4.8118 1.91407 4.8118 1.91407C4.63735 1.75764 4.40968 1.67387 4.17546 1.67992C3.94123 1.68597 3.71819 1.78138 3.55205 1.9466L2.59263 2.78088C-2.11434 8.43976 12.2952 22.0501 17.2533 17.3665L18.0142 16.4897C18.1936 16.3251 18.3016 16.0969 18.3153 15.8538C18.329 15.6108 18.2473 15.3719 18.0876 15.1882Z" fill="white"/>
</svg>
