<svg width="14" height="14" viewBox="0 0 14 14" fill="none" xmlns="http://www.w3.org/2000/svg">
<path d="M14 9.33368V12.2503C14 12.7145 13.8156 13.1596 13.4874 13.4878C13.1592 13.816 12.7141 14.0003 12.25 14.0003H9.33333C8.51497 13.9995 7.71122 13.7835 7.00271 13.3739C6.2942 12.9644 5.70584 12.3757 5.29666 11.667C5.73642 11.6639 6.17468 11.6154 6.6045 11.5224C6.93183 11.9316 7.34708 12.262 7.81946 12.489C8.29183 12.716 8.80924 12.8338 9.33333 12.8337H12.25C12.4047 12.8337 12.5531 12.7722 12.6625 12.6628C12.7719 12.5534 12.8333 12.4051 12.8333 12.2503V9.33368C12.8332 8.80941 12.715 8.29188 12.4876 7.81949C12.2602 7.3471 11.9294 6.93196 11.5197 6.60485C11.6135 6.17512 11.6627 5.73686 11.6667 5.29702C12.3754 5.7062 12.964 6.29456 13.3736 7.00307C13.7831 7.71158 13.9992 8.51533 14 9.33368ZM10.4866 5.63011C10.5411 4.87856 10.4333 4.12408 10.1703 3.41793C9.90737 2.71178 9.49549 2.07051 8.96267 1.53769C8.42985 1.00487 7.78857 0.592989 7.08242 0.330037C6.37627 0.067085 5.62179 -0.0407775 4.87025 0.0137791C3.53845 0.165873 2.30821 0.799631 1.41119 1.79571C0.514165 2.79179 0.0122658 4.08146 0 5.42186L0 8.36185C0 9.83885 0.879083 10.5004 1.75 10.5004H5.075C6.41597 10.4888 7.70642 9.98725 8.7032 9.09017C9.69999 8.1931 10.3343 6.96245 10.4866 5.63011ZM8.1375 2.36344C8.55162 2.77849 8.87177 3.27764 9.07627 3.82713C9.28077 4.37663 9.36485 4.96363 9.32283 5.54844C9.19832 6.58892 8.69779 7.548 7.91544 8.24515C7.13309 8.9423 6.12289 9.32944 5.075 9.33368H1.75C1.20867 9.33368 1.16667 8.58994 1.16667 8.36185V5.42186C1.17153 4.37441 1.55904 3.36485 2.25628 2.58317C2.95352 1.80149 3.91241 1.30158 4.9525 1.17753C5.04933 1.17053 5.14616 1.16703 5.243 1.16703C5.7804 1.16653 6.31264 1.27193 6.8093 1.47722C7.30595 1.68251 7.75728 1.98365 8.1375 2.36344Z" fill="#202020"/>
</svg>
