<svg width="42" height="42" viewBox="0 0 42 42" fill="none" xmlns="http://www.w3.org/2000/svg">
<path d="M38.5019 28.4293V11.6667C38.4991 8.57361 37.5763 5.6083 35.9358 3.42118C34.2952 1.23406 32.071 0.003705 29.751 0H12.249C9.92899 0.003705 7.70476 1.23406 6.06424 3.42118C4.42372 5.6083 3.50085 8.57361 3.49807 11.6667V28.4293C2.33125 28.9772 1.34753 30.058 0.721147 31.4802C0.0947633 32.9025 -0.133861 34.5743 0.0757661 36.1997C0.285394 37.8251 0.919745 39.2992 1.86647 40.3608C2.81319 41.4224 4.01118 42.0031 5.24826 42H36.7517C37.9888 42.0031 39.1868 41.4224 40.1335 40.3608C41.0803 39.2992 41.7146 37.8251 41.9242 36.1997C42.1339 34.5743 41.9052 32.9025 41.2789 31.4802C40.6525 30.058 39.6688 28.9772 38.5019 28.4293ZM12.249 4.66667H29.751C31.1435 4.66667 32.479 5.40416 33.4637 6.71692C34.4484 8.02967 35.0015 9.81015 35.0015 11.6667V28H27.7365C27.2274 27.9995 26.7244 28.1471 26.2626 28.4324C25.8007 28.7178 25.391 29.1339 25.0622 29.652L24.6299 30.3333H17.3683L16.9378 29.652C16.609 29.1339 16.1993 28.7178 15.7374 28.4324C15.2756 28.1471 14.7726 27.9995 14.2635 28H6.99846V11.6667C6.99846 9.81015 7.55164 8.02967 8.53632 6.71692C9.52099 5.40416 10.8565 4.66667 12.249 4.66667ZM36.7517 37.3333H5.24826C4.78408 37.3333 4.33892 37.0875 4.01069 36.6499C3.68247 36.2123 3.49807 35.6188 3.49807 35C3.49807 34.3811 3.68247 33.7877 4.01069 33.3501C4.33892 32.9125 4.78408 32.6667 5.24826 32.6667H14.2653L14.6958 33.348C15.0245 33.8657 15.4338 34.2817 15.8954 34.5671C16.3569 34.8524 16.8596 35.0001 17.3683 35H24.6299C25.139 35.0004 25.6419 34.8529 26.1038 34.5675C26.5657 34.2822 26.9753 33.866 27.3042 33.348L27.7365 32.6667H36.7517C37.2159 32.6667 37.6611 32.9125 37.9893 33.3501C38.3175 33.7877 38.5019 34.3811 38.5019 35C38.5019 35.6188 38.3175 36.2123 37.9893 36.6499C37.6611 37.0875 37.2159 37.3333 36.7517 37.3333Z" fill="#DF5646"/>
</svg>
