<svg width="42" height="42" viewBox="0 0 42 42" fill="none" xmlns="http://www.w3.org/2000/svg">
<path d="M39.3462 18.8072L20.9984 29.8177L2.65056 18.8072C2.25259 18.5684 1.77607 18.4975 1.32581 18.6101C0.875562 18.7227 0.488466 19.0095 0.249684 19.4074C0.0109015 19.8054 -0.0600078 20.2819 0.0525553 20.7322C0.165118 21.1824 0.451933 21.5695 0.849904 21.8083L20.0989 33.3577C20.3711 33.5213 20.6826 33.6076 21.0002 33.6076C21.3177 33.6076 21.6292 33.5213 21.9014 33.3577L41.1504 21.8083C41.5484 21.5695 41.8352 21.1824 41.9477 20.7322C42.0603 20.2819 41.9894 19.8054 41.7506 19.4074C41.5118 19.0095 41.1247 18.7227 40.6745 18.6101C40.2242 18.4975 39.7477 18.5684 39.3497 18.8072H39.3462Z" fill="#DF5646"/>
<path d="M39.3462 26.8008L20.9984 37.8095L2.65056 26.8008C2.45351 26.6826 2.2351 26.6043 2.00779 26.5705C1.78049 26.5367 1.54876 26.548 1.32581 26.6037C1.10287 26.6594 0.89309 26.7585 0.708448 26.8953C0.523805 27.0321 0.367917 27.204 0.249684 27.401C0.131451 27.5981 0.0531884 27.8165 0.019365 28.0438C-0.0144584 28.2711 -0.0031803 28.5028 0.0525553 28.7258C0.165118 29.176 0.451933 29.5631 0.849904 29.8019L20.0989 41.3513C20.3711 41.5149 20.6826 41.6012 21.0001 41.6012C21.3177 41.6012 21.6292 41.5149 21.9014 41.3513L41.1504 29.8019C41.5484 29.5631 41.8352 29.176 41.9477 28.7258C42.0603 28.2755 41.9894 27.799 41.7506 27.401C41.5118 27.0031 41.1247 26.7163 40.6745 26.6037C40.2242 26.4911 39.7477 26.562 39.3497 26.8008H39.3462Z" fill="#DF5646"/>
<path d="M20.9984 25.4534C20.0545 25.4529 19.1284 25.1958 18.3193 24.7097L0.848154 14.2259C0.589425 14.0704 0.375347 13.8505 0.226726 13.5877C0.0781061 13.3249 0 13.0282 0 12.7263C0 12.4244 0.0781061 12.1276 0.226726 11.8648C0.375347 11.602 0.589425 11.3822 0.848154 11.2266L18.3193 0.742867C19.1284 0.256792 20.0545 0 20.9984 0C21.9423 0 22.8684 0.256792 23.6775 0.742867L41.1486 11.2266C41.4074 11.3822 41.6214 11.602 41.7701 11.8648C41.9187 12.1276 41.9968 12.4244 41.9968 12.7263C41.9968 13.0282 41.9187 13.3249 41.7701 13.5877C41.6214 13.8505 41.4074 14.0704 41.1486 14.2259L23.6775 24.7097C22.8684 25.1958 21.9423 25.4529 20.9984 25.4534ZM5.15119 12.7263L20.1234 21.7086C20.3879 21.8668 20.6903 21.9503 20.9984 21.9503C21.3065 21.9503 21.6089 21.8668 21.8734 21.7086L36.8456 12.7263L21.8734 3.74397C21.6089 3.58578 21.3065 3.50225 20.9984 3.50225C20.6903 3.50225 20.3879 3.58578 20.1234 3.74397L5.15119 12.7263Z" fill="#DF5646"/>
</svg>
