<svg width="20" height="19" viewBox="0 0 20 19" fill="none" xmlns="http://www.w3.org/2000/svg">
<path d="M15.8333 0H4.16667C3.062 0.00132321 2.00296 0.440735 1.22185 1.22185C0.440735 2.00296 0.00132321 3.062 0 4.16667L0 14.1667C0.00132321 15.2713 0.440735 16.3304 1.22185 17.1115C2.00296 17.8926 3.062 18.332 4.16667 18.3333H15.8333C16.938 18.332 17.997 17.8926 18.7782 17.1115C19.5593 16.3304 19.9987 15.2713 20 14.1667V4.16667C19.9987 3.062 19.5593 2.00296 18.7782 1.22185C17.997 0.440735 16.938 0.00132321 15.8333 0ZM4.16667 1.66667H15.8333C16.3323 1.66765 16.8196 1.81793 17.2325 2.09817C17.6453 2.37841 17.9649 2.77579 18.15 3.23917L11.7683 9.62167C11.2987 10.0894 10.6628 10.3521 10 10.3521C9.33715 10.3521 8.70131 10.0894 8.23167 9.62167L1.85 3.23917C2.03512 2.77579 2.35468 2.37841 2.76754 2.09817C3.1804 1.81793 3.66768 1.66765 4.16667 1.66667ZM15.8333 16.6667H4.16667C3.50363 16.6667 2.86774 16.4033 2.3989 15.9344C1.93006 15.4656 1.66667 14.8297 1.66667 14.1667V5.41667L7.05333 10.8C7.83552 11.5802 8.89521 12.0184 10 12.0184C11.1048 12.0184 12.1645 11.5802 12.9467 10.8L18.3333 5.41667V14.1667C18.3333 14.8297 18.0699 15.4656 17.6011 15.9344C17.1323 16.4033 16.4964 16.6667 15.8333 16.6667Z" fill="white"/>
</svg>
