<svg width="42" height="40" viewBox="0 0 42 40" fill="none" xmlns="http://www.w3.org/2000/svg">
<path d="M33.25 0.75H8.75C6.43021 0.752779 4.20623 1.67554 2.56588 3.31589C0.925543 4.95623 0.00277875 7.18021 0 9.5L0 23.5C0.00277875 25.8198 0.925543 28.0438 2.56588 29.6841C4.20623 31.3245 6.43021 32.2472 8.75 32.25H19.25V35.75H12.25C11.7859 35.75 11.3407 35.9344 11.0126 36.2626C10.6844 36.5908 10.5 37.0359 10.5 37.5C10.5 37.9641 10.6844 38.4093 11.0126 38.7375C11.3407 39.0656 11.7859 39.25 12.25 39.25H29.75C30.2141 39.25 30.6592 39.0656 30.9874 38.7375C31.3156 38.4093 31.5 37.9641 31.5 37.5C31.5 37.0359 31.3156 36.5908 30.9874 36.2626C30.6592 35.9344 30.2141 35.75 29.75 35.75H22.75V32.25H33.25C35.5698 32.2472 37.7938 31.3245 39.4341 29.6841C41.0745 28.0438 41.9972 25.8198 42 23.5V9.5C41.9972 7.18021 41.0745 4.95623 39.4341 3.31589C37.7938 1.67554 35.5698 0.752779 33.25 0.75ZM8.75 4.25H33.25C34.6424 4.25 35.9777 4.80313 36.9623 5.78769C37.9469 6.77226 38.5 8.10762 38.5 9.5V21.75H3.5V9.5C3.5 8.10762 4.05312 6.77226 5.03769 5.78769C6.02225 4.80313 7.35761 4.25 8.75 4.25ZM33.25 28.75H8.75C7.66804 28.7455 6.6139 28.4069 5.73178 27.7804C4.84965 27.1538 4.18264 26.2701 3.822 25.25H38.178C37.8173 26.2701 37.1503 27.1538 36.2682 27.7804C35.3861 28.4069 34.3319 28.7455 33.25 28.75Z" fill="#DF5646"/>
</svg>
