<svg width="28" height="42" viewBox="0 0 28 42" fill="none" xmlns="http://www.w3.org/2000/svg">
<path d="M15.75 5.25V1.75C15.75 1.28587 15.5656 0.840752 15.2374 0.512563C14.9092 0.184374 14.4641 0 14 0C13.5359 0 13.0908 0.184374 12.7626 0.512563C12.4344 0.840752 12.25 1.28587 12.25 1.75V5.25C9.00224 5.25371 5.88855 6.54552 3.59203 8.84204C1.29552 11.1386 0.00370538 14.2522 0 17.5V28C0 31.713 1.475 35.274 4.10051 37.8995C6.72602 40.525 10.287 42 14 42C17.713 42 21.274 40.525 23.8995 37.8995C26.525 35.274 28 31.713 28 28V17.5C27.9963 14.2522 26.7045 11.1386 24.408 8.84204C22.1114 6.54552 18.9978 5.25371 15.75 5.25ZM24.5 28C24.5 30.7848 23.3938 33.4555 21.4246 35.4246C19.4555 37.3938 16.7848 38.5 14 38.5C11.2152 38.5 8.54451 37.3938 6.57538 35.4246C4.60625 33.4555 3.5 30.7848 3.5 28V17.5C3.50278 15.1802 4.42554 12.9562 6.06589 11.3159C7.70623 9.67554 9.93021 8.75278 12.25 8.75H15.75C18.0698 8.75278 20.2938 9.67554 21.9341 11.3159C23.5745 12.9562 24.4972 15.1802 24.5 17.5V28Z" fill="#DF5646"/>
<path d="M14 12.25C13.5359 12.25 13.0908 12.4344 12.7626 12.7626C12.4344 13.0908 12.25 13.5359 12.25 14V17.5C12.25 17.9641 12.4344 18.4092 12.7626 18.7374C13.0908 19.0656 13.5359 19.25 14 19.25C14.4641 19.25 14.9092 19.0656 15.2374 18.7374C15.5656 18.4092 15.75 17.9641 15.75 17.5V14C15.75 13.5359 15.5656 13.0908 15.2374 12.7626C14.9092 12.4344 14.4641 12.25 14 12.25Z" fill="#DF5646"/>
</svg>
