<svg width="12" height="14" viewBox="0 0 12 14" fill="none" xmlns="http://www.w3.org/2000/svg">
<path d="M11.25 14H10.0833V11.0582C10.0829 10.6009 9.90098 10.1624 9.5776 9.83906C9.25421 9.51567 8.81574 9.33379 8.35841 9.33333H3.64158C3.18425 9.33379 2.74578 9.51567 2.42239 9.83906C2.09901 10.1624 1.91713 10.6009 1.91667 11.0582V14H0.75V11.0582C0.750926 10.2916 1.05587 9.55669 1.59795 9.01461C2.14002 8.47254 2.87497 8.16759 3.64158 8.16666H8.35841C9.12502 8.16759 9.85997 8.47254 10.402 9.01461C10.9441 9.55669 11.2491 10.2916 11.25 11.0582V14Z" fill="#202020"/>
<path d="M6 7C5.30776 7 4.63107 6.79473 4.0555 6.41014C3.47993 6.02556 3.03133 5.47893 2.76642 4.83939C2.50151 4.19985 2.4322 3.49612 2.56725 2.81718C2.7023 2.13825 3.03564 1.51461 3.52513 1.02513C4.01461 0.535644 4.63825 0.202301 5.31718 0.0672531C5.99611 -0.0677951 6.69985 0.00151652 7.33939 0.266423C7.97893 0.53133 8.52555 0.979933 8.91014 1.5555C9.29472 2.13108 9.49999 2.80777 9.49999 3.5C9.49907 4.42797 9.13002 5.31767 8.47384 5.97385C7.81767 6.63002 6.92797 6.99907 6 7ZM6 1.16667C5.53851 1.16667 5.08738 1.30352 4.70367 1.5599C4.31995 1.81629 4.02088 2.18071 3.84428 2.60707C3.66768 3.03343 3.62147 3.50259 3.7115 3.95521C3.80153 4.40783 4.02376 4.82359 4.35008 5.14991C4.6764 5.47624 5.09216 5.69847 5.54479 5.7885C5.99741 5.87853 6.46656 5.83232 6.89292 5.65572C7.31928 5.47911 7.6837 5.18004 7.94009 4.79633C8.19648 4.41261 8.33333 3.96149 8.33333 3.5C8.33333 2.88116 8.08749 2.28767 7.64991 1.85008C7.21233 1.4125 6.61883 1.16667 6 1.16667Z" fill="#202020"/>
</svg>
