<svg width="38" height="38" viewBox="0 0 38 38" fill="none" xmlns="http://www.w3.org/2000/svg">
<path d="M11.9688 28.5703L9.78906 26.3906C9.22656 25.8281 9.01562 24.9844 9.22656 24.1406C9.4375 23.5078 9.71875 22.7344 10.0703 21.75H2.6875C2.05469 21.75 1.49219 21.4688 1.21094 20.9062C0.859375 20.4141 0.859375 19.7812 1.21094 19.2188L4.86719 13.0312C5.78125 11.4844 7.46875 10.5 9.22656 10.5H15.0625C15.2031 10.2188 15.3438 10.0078 15.5547 9.72656C21.3203 1.21875 29.8984 0.9375 34.9609 1.92188C35.8047 2.0625 36.4375 2.69531 36.5781 3.53906C37.5625 8.60156 37.2812 17.1797 28.7734 22.9453C28.4922 23.1562 28.2109 23.2969 28 23.4375V29.2734C28 31.0312 27.0156 32.7188 25.4688 33.6328L19.2812 37.2891C18.7188 37.5703 18.0859 37.6406 17.5938 37.2891C17.0312 37.0078 16.75 36.4453 16.75 35.8125V28.2891C15.6953 28.6406 14.8516 28.9219 14.2188 29.1328C13.4453 29.4141 12.5312 29.2031 11.9688 28.5703ZM28 13.3125C29.5469 13.3125 30.8125 12.1172 30.8125 10.5C30.8125 8.95312 29.5469 7.6875 28 7.6875C26.3828 7.6875 25.1875 8.95312 25.1875 10.5C25.1875 12.1172 26.3828 13.3125 28 13.3125Z" fill="black"/>
</svg>
