<svg width="50" height="50" viewBox="0 0 50 50" fill="none" xmlns="http://www.w3.org/2000/svg">
<path d="M20.6406 9.75H29.2891C30.7656 9.75 32.0312 10.7344 32.4531 12.0703L33.2266 14.25H38.5C40.9609 14.25 43 16.2891 43 18.75V36.75C43 39.2812 40.9609 41.25 38.5 41.25H11.5C8.96875 41.25 7 39.2812 7 36.75V18.75C7 16.2891 8.96875 14.25 11.5 14.25H16.7031L17.4766 12.0703C17.8984 10.7344 19.1641 9.75 20.6406 9.75ZM25 34.5C28.7266 34.5 31.75 31.4766 31.75 27.75C31.75 24.0234 28.7266 21 25 21C21.2031 21 18.25 24.0234 18.25 27.75C18.25 31.4766 21.2031 34.5 25 34.5Z" fill="black"/>
</svg>
