<svg width="50" height="50" viewBox="0 0 50 50" fill="none" xmlns="http://www.w3.org/2000/svg">
<path d="M40.75 31.125V10.875C40.75 9.04688 39.2031 7.5 37.375 7.5H16C12.2031 7.5 9.25 10.5234 9.25 14.25V36.75C9.25 40.5469 12.2031 43.5 16 43.5H38.5C39.6953 43.5 40.75 42.5156 40.75 41.3203C40.75 40.5469 40.2578 39.8438 39.625 39.4219V33.7266C40.2578 33.0234 40.75 32.1797 40.75 31.125ZM19.3047 16.5H32.8047C33.4375 16.5 34 17.0625 34 17.625C34 18.2578 33.4375 18.75 32.875 18.75H19.3047C18.7422 18.75 18.25 18.2578 18.25 17.625C18.25 17.0625 18.7422 16.5 19.3047 16.5ZM19.3047 21H32.8047C33.4375 21 34 21.5625 34 22.125C34 22.7578 33.4375 23.25 32.875 23.25H19.3047C18.7422 23.25 18.25 22.7578 18.25 22.125C18.25 21.5625 18.7422 21 19.3047 21ZM36.25 39H16C14.7344 39 13.75 38.0156 13.75 36.75C13.75 35.5547 14.7344 34.5 16 34.5H36.25V39Z" fill="black"/>
</svg>
