<svg width="50" height="50" viewBox="0 0 50 50" fill="none" xmlns="http://www.w3.org/2000/svg">
<path d="M27.3984 9.75C28.1719 9.75 28.9453 10.2422 29.3672 10.9453L36.2578 23.6719C37.1016 23.4609 38.0156 23.25 39 23.25C43.9219 23.25 48 27.3281 48 32.25C48 37.2422 43.9219 41.25 39 41.25C34.0078 41.25 30 37.2422 30 32.25C30 29.4375 31.2656 26.9766 33.3047 25.2891L31.7578 22.4766L25.7812 32.6016C25.5 33.0938 24.9375 33.375 24.375 33.375H20.9297C20.3672 37.875 16.5703 41.25 12 41.25C7.00781 41.25 3 37.2422 3 32.25C3 27.3281 7.00781 23.25 12 23.25C12.7031 23.25 13.4766 23.3906 14.1797 23.5312L16.0078 19.8047L14.4609 17.625H11.4375C10.4531 17.625 9.75 16.9219 9.75 15.9375C9.75 15.0234 10.4531 14.25 11.4375 14.25H15.375C15.8672 14.25 16.3594 14.5312 16.7109 14.9531L18.6094 17.625H29.1562L26.6953 13.125H24.8672C23.9531 13.125 23.1797 12.4219 23.1797 11.4375C23.1797 10.5234 23.9531 9.75 24.8672 9.75H27.3984ZM33.9375 32.25C33.9375 35.0625 36.1875 37.3125 39 37.3125C41.7422 37.3125 44.0625 35.0625 44.0625 32.25C44.0625 29.5078 41.7422 27.1875 39 27.1875C38.7188 27.1875 38.4375 27.2578 38.1562 27.2578L40.4766 31.4766C40.8984 32.3203 40.6172 33.3047 39.7734 33.7969C38.9297 34.2188 37.9453 33.9375 37.4531 33.0938L35.2031 28.875C34.4297 29.7891 33.9375 30.9844 33.9375 32.25ZM10.5938 30.6328L12.3516 27.2578C12.2109 27.2578 12.0703 27.1875 11.9297 27.1875C9.1875 27.1875 6.86719 29.5078 6.86719 32.25C6.86719 35.0625 9.1875 37.3125 11.9297 37.3125C14.3906 37.3125 16.3594 35.6953 16.9219 33.375H12.3516C10.875 33.375 9.96094 31.8984 10.5938 30.6328ZM23.3906 30L18.2578 22.8984L14.6719 30H23.3906ZM21.0703 21L25.2891 26.8359L28.6641 21H21.0703Z" fill="black"/>
</svg>
