<svg width="18" height="18" viewBox="0 0 18 18" fill="none" xmlns="http://www.w3.org/2000/svg">
<g clip-path="url(#clip0_101_727)">
<path d="M2 18C2 16.1814 2.72245 14.4372 4.00841 13.1513C5.29437 11.8653 7.03852 11.1429 8.85714 11.1429C10.6758 11.1429 12.4199 11.8653 13.7059 13.1513C14.9918 14.4372 15.7143 16.1814 15.7143 18H14C14 16.636 13.4582 15.3279 12.4937 14.3635C11.5292 13.399 10.2211 12.8571 8.85714 12.8571C7.49317 12.8571 6.18507 13.399 5.22059 14.3635C4.25612 15.3279 3.71429 16.636 3.71429 18H2ZM8.85714 10.2857C6.01571 10.2857 3.71429 7.98429 3.71429 5.14286C3.71429 2.30143 6.01571 0 8.85714 0C11.6986 0 14 2.30143 14 5.14286C14 7.98429 11.6986 10.2857 8.85714 10.2857ZM8.85714 8.57143C10.7514 8.57143 12.2857 7.03714 12.2857 5.14286C12.2857 3.24857 10.7514 1.71429 8.85714 1.71429C6.96286 1.71429 5.42857 3.24857 5.42857 5.14286C5.42857 7.03714 6.96286 8.57143 8.85714 8.57143Z" fill="black"/>
</g>
<defs>
<clipPath id="clip0_101_727">
<rect width="18" height="18" fill="white"/>
</clipPath>
</defs>
</svg>
