<svg width="50" height="50" viewBox="0 0 50 50" fill="none" xmlns="http://www.w3.org/2000/svg">
<path d="M34.5 12H16.5C8.97656 12 3 18.0469 3 25.5C3 33.0234 8.97656 39 16.5 39H34.5C41.9531 39 48 33.0234 48 25.5C48 18.0469 41.9531 12 34.5 12ZM20.3672 27.1875H18.1172V29.4375C18.1172 30.4219 17.3438 31.125 16.4297 31.125C15.4453 31.125 14.7422 30.4219 14.7422 29.4375V27.1875H12.5625C11.5781 27.1875 10.8047 26.4844 10.8047 25.5C10.8047 24.5859 11.5078 23.8125 12.4922 23.8125H14.7422V21.5625C14.7422 20.6484 15.4453 19.875 16.4297 19.875C17.3438 19.875 18.1172 20.6484 18.1172 21.5625V23.8125H20.3672C21.2812 23.8125 22.0547 24.5859 22.0547 25.5C22.0547 26.4844 21.3516 27.1875 20.3672 27.1875ZM33.3047 31.6875C31.6875 31.6875 30.5625 30.4922 30.5625 28.9453C30.5625 27.4688 31.7578 26.1328 33.3047 26.1328C34.7812 26.1328 36.0469 27.3984 36.0469 28.9453C36.0469 30.5625 34.9219 31.6875 33.3047 31.6875ZM37.8047 24.9375C36.1875 24.9375 35.0625 23.7422 35.0625 22.1953C35.0625 20.7188 36.2578 19.3828 37.8047 19.3828C39.3516 19.3828 40.5469 20.6484 40.5469 22.1953C40.5469 23.8125 39.4219 24.9375 37.8047 24.9375Z" fill="black"/>
</svg>
